<svg width="25" height="25" viewBox="0 0 25 25" fill="none" xmlns="http://www.w3.org/2000/svg">
<path fill-rule="evenodd" clip-rule="evenodd" d="M3.125 0H21.875C23.5984 0 25 1.40156 25 3.125V21.875C25 23.5984 23.5984 25 21.875 25H17.1875V16.4062H19.5312L21.0938 12.5H17.1875V9.375C17.1875 8.58221 17.7789 8.58678 18.5443 8.5927C18.6116 8.59322 18.6803 8.59375 18.75 8.59375H20.3125V4.6875H17.1875C14.5984 4.6875 12.5 6.78594 12.5 9.375V12.5H9.375V16.4062H12.5V25H3.125C1.40156 25 0 23.5984 0 21.875V3.125C0 1.40156 1.40156 0 3.125 0Z" fill="#E4E8EC"/>
</svg>
