<svg width="25" height="25" viewBox="0 0 25 25" fill="none" xmlns="http://www.w3.org/2000/svg">
<path fill-rule="evenodd" clip-rule="evenodd" d="M18.1007 0H6.89893C3.09485 0 0 3.09521 0 6.89893V18.1011C0 21.9053 3.09485 25 6.89893 25H18.1007C21.9052 25 25 21.9048 25 18.1011V6.89893C25.0001 3.09521 21.9052 0 18.1007 0ZM22.782 18.1011C22.782 20.6821 20.682 22.7817 18.101 22.7817H6.89893C4.31799 22.7822 2.21814 20.6821 2.21814 18.1011V6.89893C2.21814 4.31787 4.31799 2.21826 6.89893 2.21826H18.1007C20.6819 2.21826 22.7819 4.31787 22.7819 6.89893L22.782 18.1011ZM12.5 6.05859C8.94788 6.05859 6.05811 8.94824 6.05811 12.5005C6.05811 16.0522 8.94788 18.9419 12.5 18.9419C16.0521 18.9419 18.9419 16.0522 18.9419 12.5005C18.9419 8.94824 16.0521 6.05859 12.5 6.05859ZM12.5 16.7236C10.1711 16.7236 8.27625 14.8291 8.27625 12.5005C8.27625 10.1714 10.1709 8.27637 12.5 8.27637C14.829 8.27637 16.7238 10.1714 16.7238 12.5005C16.7238 14.8291 14.8289 16.7236 12.5 16.7236ZM18.0631 4.65381C18.3649 4.35059 18.7847 4.17773 19.212 4.17773C19.4684 4.17773 19.7216 4.23975 19.9482 4.354C20.1007 4.43115 20.2412 4.53174 20.3625 4.65381C20.6656 4.95557 20.8387 5.37549 20.8387 5.8042C20.8387 6.23193 20.6656 6.65186 20.3625 6.95459C20.0594 7.25635 19.6409 7.43115 19.212 7.43115C18.7847 7.43115 18.3647 7.25635 18.0631 6.95459C17.7599 6.65186 17.5854 6.23193 17.5854 5.8042C17.5854 5.37549 17.7598 4.95557 18.0631 4.65381Z" fill="#E4E8EC"/>
</svg>
