<svg width="349" height="422" viewBox="0 0 349 422" fill="none" xmlns="http://www.w3.org/2000/svg">
<path d="M255.191 101.268C255.158 125.958 246.1 149.786 229.718 168.274C213.336 186.761 190.759 198.636 166.23 201.665C141.701 204.695 116.908 198.671 96.5124 184.725C76.1164 170.78 61.5211 149.873 55.4696 125.935V202.536H1V0H55.4696V76.6009C60.6685 55.9704 72.2339 37.4972 88.5272 23.7979C104.821 10.0987 125.016 1.8681 146.252 0.272063V55.0474C135.266 56.8284 125.272 62.4566 118.059 70.925C110.847 79.3933 106.886 90.1492 106.886 101.268C106.886 112.387 110.847 123.142 118.059 131.611C125.272 140.079 135.266 145.707 146.252 147.488C146.862 147.611 147.479 147.701 148.098 147.76C149.188 147.76 150.307 148.002 151.427 148.063H153.817C166.247 148.063 178.168 143.135 186.962 134.361C195.757 125.587 200.706 113.684 200.722 101.268C200.722 100.754 200.722 100.27 200.722 99.7564H255.191C255.191 100.24 255.191 100.754 255.191 101.268Z" fill="#101F30"/>
<path d="M349 101.268V202.536H294.53V101.268C294.731 88.8411 289.982 76.8437 281.327 67.9148C272.673 58.986 260.822 53.8573 248.383 53.6569C235.943 53.4564 223.933 58.2007 214.995 66.8461C206.057 75.4914 200.922 87.3296 200.722 99.7564C200.722 100.27 200.722 100.754 200.722 101.268C200.722 113.695 195.78 125.613 186.984 134.4C178.188 143.187 166.257 148.123 153.817 148.123C151.282 148.127 148.751 147.915 146.252 147.488V101.268C146.252 74.41 156.933 48.6521 175.944 29.6607C194.955 10.6693 220.74 0 247.626 0C274.512 0 300.297 10.6693 319.308 29.6607C338.32 48.6521 349 74.41 349 101.268Z" fill="#17AADF"/>
<path fill-rule="evenodd" clip-rule="evenodd" d="M335.746 340.774V314.384H345.096V340.895L335.746 340.774ZM320.222 341.56C311.426 341.56 307.018 337.791 306.998 330.254V314.384H316.288V322.788C317.141 322.272 318.07 321.894 319.042 321.669C320.36 321.361 321.712 321.219 323.066 321.246C325.843 320.991 328.615 321.778 330.843 323.453C331.82 324.392 332.578 325.534 333.064 326.798C333.551 328.062 333.753 329.417 333.658 330.768C333.747 332.289 333.463 333.808 332.83 335.194C332.197 336.579 331.235 337.79 330.026 338.719C327.171 340.743 323.719 341.754 320.222 341.59V341.56ZM323.248 328.259C322.873 327.897 322.426 327.618 321.936 327.441C321.446 327.264 320.923 327.192 320.403 327.231C319.59 327.213 318.783 327.378 318.043 327.715C317.402 328.012 316.85 328.471 316.439 329.045V331.07C316.381 332.162 316.726 333.238 317.408 334.093C317.801 334.486 318.276 334.787 318.799 334.975C319.322 335.163 319.88 335.234 320.434 335.182C320.991 335.248 321.556 335.181 322.082 334.987C322.608 334.792 323.08 334.476 323.46 334.063C324.163 333.218 324.52 332.138 324.458 331.04C324.437 330.508 324.305 329.985 324.071 329.507C323.836 329.028 323.505 328.603 323.097 328.259H323.248ZM296.013 339.504C293.938 340.671 291.585 341.256 289.204 341.197C287.88 341.268 286.556 341.057 285.319 340.578C284.083 340.098 282.962 339.361 282.033 338.416V350.236H272.531V327.624C272.481 325.08 273.13 322.571 274.407 320.369C275.66 318.274 277.501 316.592 279.703 315.533C282.194 314.345 284.932 313.765 287.691 313.84C290.321 313.772 292.927 314.342 295.287 315.502C297.392 316.545 299.133 318.2 300.28 320.248C301.466 322.48 302.06 324.978 302.005 327.503C302.069 330.006 301.518 332.487 300.401 334.728C299.373 336.729 297.786 338.388 295.832 339.504H296.013ZM291.474 322.939C290.952 322.395 290.324 321.962 289.63 321.666C288.936 321.37 288.189 321.218 287.434 321.218C286.68 321.218 285.933 321.37 285.238 321.666C284.544 321.962 283.917 322.395 283.394 322.939C282.348 324.224 281.81 325.848 281.881 327.503C281.793 329.17 282.333 330.809 283.394 332.098C283.893 332.669 284.514 333.12 285.21 333.418C285.907 333.716 286.662 333.854 287.419 333.821C288.181 333.852 288.939 333.713 289.641 333.416C290.342 333.118 290.968 332.668 291.474 332.098C292.544 330.812 293.094 329.174 293.017 327.503C293.045 325.818 292.428 324.186 291.293 322.939H291.474ZM255.524 334.124C256.648 334.148 257.766 333.963 258.823 333.58C259.862 333.157 260.823 332.565 261.667 331.826L266.509 336.905C265.057 338.411 263.289 339.578 261.332 340.32C259.375 341.062 257.278 341.362 255.191 341.197C252.358 341.26 249.55 340.66 246.991 339.444C244.772 338.349 242.901 336.661 241.586 334.567C240.271 332.473 239.563 330.056 239.541 327.584C239.519 325.112 240.184 322.682 241.462 320.565C242.739 318.449 244.58 316.727 246.779 315.593C249.046 314.471 251.536 313.872 254.066 313.841C256.596 313.809 259.101 314.346 261.395 315.412C263.52 316.44 265.305 318.056 266.539 320.067C267.853 322.255 268.515 324.772 268.446 327.322L249.442 330.95C250.003 332 250.862 332.862 251.912 333.427C252.962 333.992 254.155 334.234 255.343 334.124H255.524ZM259.549 324.088C259.232 323.019 258.573 322.085 257.673 321.427C256.579 320.725 255.289 320.392 253.992 320.479C252.694 320.566 251.46 321.068 250.471 321.911C249.371 323.071 248.754 324.606 248.746 326.204L259.549 324.088ZM259.549 311.149C258.518 311.175 257.518 310.795 256.765 310.091C256.402 309.734 256.117 309.305 255.929 308.831C255.742 308.357 255.655 307.85 255.675 307.341C255.656 306.823 255.743 306.306 255.93 305.823C256.117 305.339 256.401 304.899 256.765 304.529C257.53 303.845 258.522 303.467 259.549 303.467C260.576 303.467 261.567 303.845 262.333 304.529C262.696 304.899 262.981 305.339 263.168 305.823C263.355 306.306 263.442 306.823 263.422 307.341C263.442 307.85 263.356 308.357 263.168 308.831C262.981 309.305 262.696 309.734 262.333 310.091C261.921 310.482 261.429 310.779 260.891 310.962C260.352 311.144 259.781 311.208 259.216 311.149H259.549ZM249.139 311.149C248.117 311.173 247.128 310.793 246.385 310.091C246.012 309.74 245.719 309.313 245.525 308.838C245.332 308.363 245.244 307.853 245.266 307.341C245.245 306.82 245.333 306.3 245.526 305.816C245.719 305.332 246.012 304.893 246.385 304.529C247.146 303.847 248.132 303.47 249.154 303.47C250.176 303.47 251.162 303.847 251.923 304.529C252.287 304.899 252.571 305.339 252.758 305.823C252.945 306.306 253.032 306.823 253.013 307.341C253.033 307.85 252.946 308.357 252.759 308.831C252.571 309.305 252.286 309.734 251.923 310.091C251.513 310.486 251.021 310.785 250.483 310.968C249.944 311.151 249.372 311.213 248.806 311.149H249.139ZM224.93 331.463H215.126V340.774H205.866V314.384H215.126V324.208H224.688V314.384H234.009V340.895H224.688L224.93 331.463ZM189.828 327.11C189.936 325.671 189.564 324.235 188.769 323.03C188.406 322.584 187.942 322.232 187.416 322.001C186.89 321.769 186.316 321.666 185.743 321.699C185.105 321.673 184.47 321.789 183.883 322.04C183.296 322.291 182.774 322.671 182.353 323.15C181.412 324.444 180.961 326.03 181.082 327.624V340.774H171.823V327.11C171.823 323.513 170.461 321.699 167.798 321.699C167.151 321.67 166.506 321.785 165.909 322.036C165.312 322.287 164.779 322.668 164.348 323.15C163.407 324.444 162.956 326.03 163.077 327.624V340.774H153.757V314.384H162.623V317.165C163.6 316.11 164.799 315.284 166.134 314.747C167.556 314.217 169.064 313.951 170.582 313.961C172.303 313.923 174.01 314.274 175.575 314.989C177.036 315.638 178.284 316.686 179.176 318.011C180.229 316.694 181.591 315.656 183.14 314.989C184.799 314.262 186.595 313.901 188.406 313.931C189.845 313.869 191.282 314.106 192.626 314.626C193.97 315.146 195.191 315.939 196.213 316.953C197.277 318.151 198.093 319.548 198.613 321.064C199.132 322.579 199.345 324.182 199.239 325.78V340.895H189.828V327.11ZM190.07 290.201C187.991 291.357 185.641 291.942 183.261 291.893C181.934 291.961 180.609 291.745 179.372 291.26C178.135 290.775 177.016 290.033 176.089 289.082V300.932H166.769V278.29C166.719 275.756 167.368 273.256 168.645 271.065C169.889 268.963 171.733 267.279 173.941 266.229C176.432 265.038 179.168 264.448 181.93 264.506C184.568 264.441 187.184 265.011 189.555 266.168C191.71 267.199 193.495 268.866 194.67 270.945C195.873 273.171 196.477 275.67 196.425 278.2C196.446 280.706 195.843 283.178 194.67 285.394C193.653 287.421 192.051 289.095 190.07 290.201ZM185.591 273.635C185.078 273.08 184.456 272.637 183.763 272.334C183.071 272.031 182.323 271.875 181.567 271.875C180.81 271.875 180.063 272.031 179.37 272.334C178.677 272.637 178.055 273.08 177.542 273.635C176.466 274.874 175.894 276.47 175.938 278.109C175.859 279.774 176.398 281.41 177.451 282.704C177.956 283.273 178.583 283.72 179.285 284.014C179.987 284.307 180.746 284.438 181.506 284.397C182.266 284.443 183.026 284.321 183.732 284.039C184.439 283.756 185.074 283.321 185.591 282.764C186.597 281.466 187.143 279.871 187.143 278.23C187.143 276.588 186.597 274.993 185.591 273.695V273.635ZM149.581 284.79C150.72 284.784 151.849 284.569 152.91 284.155C153.939 283.732 154.89 283.139 155.724 282.401L160.566 287.48C159.127 289.002 157.369 290.188 155.417 290.951C153.466 291.714 151.369 292.036 149.278 291.893C146.46 291.97 143.663 291.391 141.108 290.201C138.853 289.136 136.952 287.447 135.631 285.334C134.372 283.194 133.709 280.757 133.709 278.275C133.709 275.793 134.372 273.357 135.631 271.217C136.911 269.147 138.731 267.464 140.896 266.35C143.179 265.247 145.683 264.674 148.219 264.674C150.755 264.674 153.259 265.247 155.542 266.35C157.646 267.384 159.417 268.986 160.656 270.975C161.964 273.165 162.625 275.68 162.563 278.23L143.589 281.857C144.19 282.879 145.079 283.701 146.144 284.223C147.209 284.744 148.404 284.941 149.581 284.79ZM153.606 274.784C153.301 273.709 152.653 272.765 151.76 272.093C150.794 271.419 149.639 271.069 148.461 271.096C147.738 271.072 147.017 271.194 146.341 271.454C145.665 271.713 145.049 272.105 144.527 272.607C143.456 273.774 142.844 275.287 142.802 276.869L153.606 274.784ZM141.501 315.502C143.6 316.554 145.338 318.207 146.494 320.248C147.68 322.48 148.274 324.978 148.219 327.503C148.268 330.005 147.718 332.482 146.615 334.728C145.587 336.729 144 338.388 142.046 339.504C139.961 340.675 137.598 341.26 135.207 341.197C133.903 341.281 132.597 341.09 131.371 340.637C130.146 340.184 129.03 339.479 128.096 338.567V350.387H118.745V327.776C118.686 325.234 119.325 322.725 120.591 320.521C121.852 318.431 123.691 316.752 125.887 315.684C128.39 314.5 131.137 313.92 133.906 313.991C136.523 313.876 139.128 314.395 141.501 315.502ZM133.452 321.216C132.695 321.19 131.943 321.33 131.247 321.628C130.551 321.926 129.93 322.374 129.427 322.939C128.381 324.224 127.842 325.848 127.914 327.503C127.818 329.166 128.347 330.805 129.397 332.098C129.901 332.669 130.527 333.12 131.229 333.419C131.931 333.717 132.69 333.854 133.452 333.821C134.213 333.848 134.97 333.707 135.671 333.41C136.371 333.112 136.998 332.664 137.507 332.098C138.576 330.812 139.127 329.174 139.05 327.503C139.128 325.842 138.577 324.213 137.507 322.939C136.998 322.373 136.371 321.925 135.671 321.627C134.97 321.33 134.213 321.189 133.452 321.216ZM130.093 283.459C130.117 285.17 129.464 286.821 128.277 288.054C126.883 289.467 125.156 290.507 123.254 291.077C120.959 291.77 118.57 292.106 116.173 292.075C112.024 292.14 107.905 291.359 104.069 289.777L106.489 283.52C109.457 284.723 112.637 285.32 115.84 285.273C117.043 285.329 118.243 285.112 119.35 284.638C119.726 284.504 120.051 284.258 120.284 283.934C120.516 283.61 120.644 283.223 120.651 282.825C120.674 282.516 120.612 282.208 120.474 281.931C120.335 281.654 120.125 281.42 119.865 281.253C119.122 280.892 118.299 280.725 117.474 280.769H111.755V275.267H116.657C118.866 275.267 119.955 274.602 119.955 273.242C119.955 271.882 118.503 271.156 115.598 271.156C112.7 271.223 109.839 271.817 107.155 272.909L104.946 266.864C108.552 265.317 112.43 264.505 116.354 264.476C119.575 264.359 122.776 265.034 125.675 266.44C126.778 266.907 127.718 267.691 128.375 268.692C129.033 269.693 129.378 270.866 129.367 272.063C129.367 273.259 128.985 274.424 128.277 275.388C127.494 276.449 126.452 277.291 125.251 277.837C126.62 278.215 127.85 278.982 128.792 280.044C129.62 280.99 130.082 282.202 130.093 283.459ZM112.36 314.384V340.895H103.463V338.235C102.471 339.298 101.25 340.122 99.8922 340.646C98.5347 341.169 97.0759 341.379 95.6257 341.258C93.3143 341.297 91.035 340.713 89.0289 339.565C87.0424 338.427 85.4089 336.764 84.3082 334.758C83.1752 332.518 82.5849 330.044 82.5849 327.534C82.5849 325.024 83.1752 322.549 84.3082 320.309C85.4114 318.321 87.0457 316.678 89.0289 315.563C91.0429 314.438 93.3186 313.865 95.6257 313.9C96.9818 313.826 98.3387 314.029 99.6134 314.497C100.888 314.965 102.054 315.688 103.04 316.621V314.384H112.36ZM101.617 322.999C101.089 322.471 100.462 322.052 99.7711 321.766C99.0805 321.48 98.3403 321.333 97.5927 321.333C96.8452 321.333 96.1049 321.48 95.4143 321.766C94.7238 322.052 94.0964 322.471 93.568 322.999C93.0153 323.624 92.5917 324.351 92.3216 325.14C92.0516 325.928 91.9404 326.762 91.9944 327.594C91.8857 329.292 92.451 330.965 93.568 332.249C94.0922 332.785 94.7183 333.211 95.4094 333.501C96.1006 333.792 96.8428 333.941 97.5927 333.941C98.3426 333.941 99.0849 333.792 99.776 333.501C100.467 333.211 101.093 332.785 101.617 332.249C102.72 330.957 103.284 329.29 103.191 327.594C103.253 326.743 103.146 325.889 102.876 325.079C102.606 324.27 102.178 323.522 101.617 322.878V322.999ZM90.5419 288.598C89.5635 289.673 88.3526 290.51 87.0014 291.047C85.6149 291.6 84.1367 291.887 82.6438 291.893C81.1385 291.972 79.6328 291.745 78.2179 291.225C76.8031 290.706 75.5086 289.905 74.4129 288.871C73.318 287.644 72.4849 286.207 71.9646 284.648C71.4443 283.088 71.2477 281.439 71.3868 279.802V264.989H80.7071V278.109C80.5734 279.645 80.9684 281.181 81.8268 282.462C82.2289 282.936 82.7369 283.309 83.3099 283.55C83.8829 283.792 84.5048 283.895 85.1252 283.852C85.7973 283.892 86.4699 283.785 87.0968 283.54C87.7237 283.295 88.2899 282.916 88.7565 282.432C89.7929 281.088 90.2894 279.406 90.1485 277.716V264.959H99.4689V291.44H90.5419V288.598ZM85.095 262.39C82.6128 262.603 80.138 261.905 78.135 260.425C77.3512 259.634 76.7439 258.686 76.3527 257.644C75.9616 256.602 75.7955 255.49 75.8654 254.379H81.9176C81.8843 255.299 82.1614 256.204 82.7044 256.948C83.0144 257.25 83.3855 257.481 83.7926 257.627C84.1998 257.773 84.6336 257.831 85.0647 257.795C85.5079 257.836 85.9547 257.778 86.3731 257.627C86.7916 257.475 87.1714 257.233 87.4856 256.918C88.0682 256.205 88.3599 255.298 88.3026 254.379H94.3548C94.4348 255.493 94.2704 256.611 93.8732 257.656C93.476 258.7 92.8555 259.645 92.055 260.425C90.0423 261.885 87.575 262.581 85.095 262.39ZM55.863 288.81C54.8631 289.872 53.6365 290.695 52.2744 291.219C50.9123 291.742 49.4497 291.952 47.9951 291.833C45.6914 291.872 43.4173 291.31 41.3983 290.201C39.4079 289.065 37.7813 287.387 36.7078 285.364C35.5537 283.136 34.9513 280.663 34.9513 278.154C34.9513 275.645 35.5537 273.173 36.7078 270.945C37.7905 268.943 39.4162 267.288 41.3983 266.168C43.4139 265.048 45.6885 264.474 47.9951 264.506C49.3542 264.427 50.7149 264.63 51.9911 265.104C53.2673 265.577 54.4312 266.31 55.4091 267.257V264.959H64.7294V291.44H55.863V288.81ZM53.9868 273.544C53.4585 273.016 52.8311 272.597 52.1405 272.311C51.4499 272.025 50.7097 271.878 49.9621 271.878C49.2145 271.878 48.4743 272.025 47.7837 272.311C47.0932 272.597 46.4658 273.016 45.9374 273.544C44.8457 274.808 44.2822 276.442 44.3638 278.109C44.2757 279.813 44.838 281.488 45.9374 282.794C46.4658 283.323 47.0932 283.742 47.7837 284.028C48.4743 284.314 49.2145 284.461 49.9621 284.461C50.7097 284.461 51.4499 284.314 52.1405 284.028C52.8311 283.742 53.4585 283.323 53.9868 282.794C55.0645 281.48 55.5954 279.803 55.4696 278.109C55.589 276.453 55.057 274.815 53.9868 273.544ZM22.9391 291.44L15.1318 278.351H10.7138V291.44H1.00002V257.22H10.7138V270.521H15.3739L23.5746 257.22H33.7725L23.0299 273.756L33.8633 291.44H22.9391ZM10.3204 327.715C10.1866 329.251 10.5816 330.787 11.44 332.068C11.8481 332.533 12.358 332.897 12.9301 333.133C13.5021 333.369 14.121 333.47 14.7385 333.428C15.415 333.45 16.0881 333.323 16.7103 333.057C17.3324 332.79 17.8886 332.391 18.3395 331.887C19.3759 330.543 19.8723 328.861 19.7315 327.171V314.384H29.0518V340.895H20.1854V338.053C19.1963 339.116 17.9883 339.951 16.6449 340.502C15.2583 341.051 13.7788 341.328 12.2873 341.318C10.7821 341.395 9.27692 341.167 7.86234 340.648C6.44776 340.128 5.1531 339.328 4.05636 338.295C2.97323 337.061 2.14765 335.623 1.62802 334.066C1.1084 332.508 0.90518 330.863 1.03028 329.227V314.384H10.3204V327.715ZM76.8943 340.925H67.7858V321.639H58.7075V340.774H49.5687V314.384H77.0456L76.8943 340.925Z" fill="#101F30"/>
<path fill-rule="evenodd" clip-rule="evenodd" d="M129.578 400.447V397.424H126.552L124.464 400.447H122.618L125.07 397.212C124.424 397.029 123.853 396.648 123.435 396.124C123.032 395.596 122.828 394.943 122.861 394.28C122.837 393.81 122.923 393.342 123.112 392.912C123.301 392.481 123.588 392.101 123.95 391.801C124.846 391.212 125.904 390.916 126.976 390.955H131.122V400.447H129.578ZM129.578 392.466H127.037C125.372 392.466 124.555 393.101 124.555 394.34C124.53 394.604 124.573 394.87 124.679 395.113C124.785 395.356 124.95 395.569 125.16 395.731C125.694 396.064 126.318 396.222 126.946 396.184H129.578V392.466ZM118.563 399.026C118.174 399.531 117.678 399.944 117.111 400.235C116.501 400.504 115.841 400.638 115.174 400.628C114.309 400.639 113.455 400.431 112.693 400.023C111.972 399.63 111.374 399.044 110.968 398.33C110.563 397.546 110.355 396.674 110.363 395.791C110.348 394.917 110.556 394.053 110.968 393.282C111.382 392.567 111.977 391.973 112.693 391.559C113.455 391.151 114.309 390.943 115.174 390.955C115.82 390.959 116.458 391.093 117.05 391.348C117.623 391.589 118.116 391.987 118.473 392.496V391.045H120.198V400.537H118.563V399.026ZM118.079 394.038C117.816 393.561 117.43 393.164 116.96 392.889C116.466 392.596 115.899 392.449 115.326 392.466C114.742 392.444 114.163 392.591 113.661 392.889C113.185 393.167 112.789 393.563 112.511 394.038C112.233 394.58 112.087 395.181 112.087 395.791C112.087 396.401 112.233 397.002 112.511 397.544C112.797 398.022 113.191 398.425 113.661 398.723C114.172 398.998 114.746 399.134 115.326 399.116C115.895 399.123 116.456 398.988 116.96 398.723C117.428 398.433 117.814 398.027 118.079 397.544C118.358 397.002 118.503 396.401 118.503 395.791C118.503 395.181 118.358 394.58 118.079 394.038ZM107.76 400.537L104.583 396.517H102.586V400.537H100.861V391.045H102.586V395.066H104.613L107.639 391.045H109.485L105.884 395.61L109.939 400.447L107.76 400.537ZM93.0838 398.723C93.6223 398.973 94.2172 399.078 94.8087 399.026C95.3232 399.043 95.8336 398.928 96.2915 398.693C96.7508 398.472 97.1388 398.126 97.4111 397.696L98.7123 398.512C98.3385 399.152 97.7936 399.675 97.1388 400.023C96.4223 400.37 95.635 400.546 94.839 400.537C93.9312 400.553 93.0347 400.335 92.2365 399.902C91.4898 399.509 90.8705 398.911 90.4511 398.179C90.019 397.426 89.7994 396.569 89.8157 395.7C89.8028 394.823 90.022 393.957 90.4511 393.191C90.88 392.475 91.4976 391.889 92.2365 391.499C93.0347 391.066 93.9312 390.848 94.839 390.864C95.635 390.855 96.4223 391.031 97.1388 391.378C97.8006 391.716 98.3479 392.242 98.7123 392.889L97.4111 393.736C97.1316 393.303 96.7462 392.95 96.2915 392.708C95.8281 392.488 95.3215 392.375 94.8087 392.375C94.2385 392.367 93.6759 392.507 93.1769 392.783C92.6779 393.059 92.2598 393.46 91.9642 393.947C91.6854 394.49 91.54 395.091 91.54 395.7C91.54 396.31 91.6854 396.911 91.9642 397.454C92.2227 397.941 92.6099 398.349 93.0838 398.633V398.723ZM93.447 421.97H91.7826V418.947H88.7565L86.6685 421.97H84.8226L87.1224 418.735C86.4759 418.572 85.9015 418.2 85.4883 417.677C85.0396 417.015 84.8445 416.214 84.939 415.42C85.0335 414.626 85.4111 413.893 86.0028 413.354C86.894 412.754 87.9553 412.457 89.0289 412.508H93.1746L93.447 421.97ZM91.7826 413.899H89.3617C87.6974 413.899 86.8803 414.533 86.8803 415.773C86.856 416.041 86.8986 416.311 87.0042 416.559C87.1098 416.807 87.2751 417.025 87.4856 417.193C88.0191 417.526 88.6431 417.685 89.271 417.647H91.7826V413.899ZM81.736 398.512C82.3575 398.879 83.0724 399.057 83.7937 399.026C84.3017 399.047 84.8083 398.959 85.2786 398.766C85.7488 398.572 86.1714 398.28 86.5172 397.907L87.4553 398.996C87.0329 399.501 86.4925 399.896 85.8817 400.144C85.1995 400.419 84.4686 400.552 83.7332 400.537C82.8098 400.552 81.8964 400.345 81.0703 399.933C80.3153 399.54 79.6861 398.943 79.2546 398.21C78.8255 397.444 78.6063 396.578 78.6191 395.7C78.6116 394.837 78.8196 393.985 79.2243 393.222C79.6206 392.493 80.2197 391.894 80.9492 391.499C81.6943 391.071 82.541 390.852 83.4003 390.864C84.2121 390.864 85.0116 391.061 85.7304 391.438C86.4414 391.821 87.0291 392.398 87.425 393.101C87.8566 393.833 88.0765 394.67 88.0605 395.519L80.5256 396.97C80.7776 397.622 81.2481 398.167 81.857 398.512H81.736ZM86.3659 394.642C86.223 393.979 85.8605 393.383 85.337 392.95C84.7844 392.521 84.1 392.296 83.4003 392.315C82.8367 392.304 82.2812 392.45 81.7965 392.738C81.3266 393.013 80.9398 393.41 80.6769 393.887C80.398 394.417 80.2624 395.011 80.2835 395.61V395.791L86.3659 394.642ZM80.6466 417.314V412.417H82.3715V421.879H80.7374V420.458C80.3739 420.941 79.8954 421.326 79.3454 421.577C78.5609 421.939 77.6895 422.072 76.8325 421.96C75.9755 421.847 75.168 421.494 74.5037 420.942C74.1268 420.538 73.8359 420.062 73.6486 419.542C73.4614 419.022 73.3816 418.47 73.4143 417.919V412.478H75.1391V417.707C75.1065 418.082 75.1486 418.459 75.2628 418.817C75.3771 419.175 75.5613 419.507 75.8049 419.793C76.0448 420.045 76.3374 420.24 76.6617 420.366C76.986 420.491 77.3341 420.543 77.681 420.519C78.0802 420.533 78.4782 420.468 78.8521 420.328C79.2261 420.188 79.5685 419.975 79.8598 419.703C80.1613 419.384 80.3967 419.009 80.5525 418.599C80.7083 418.189 80.7814 417.753 80.7676 417.314H80.6466ZM74.5944 396.607C73.651 397.068 72.618 397.315 71.5683 397.333C70.5824 397.397 69.6058 397.108 68.8146 396.517C68.4746 396.205 68.2106 395.819 68.0427 395.389C67.8749 394.96 67.8077 394.498 67.8463 394.038V391.015H69.5711V394.038C69.5519 394.315 69.5965 394.592 69.7014 394.849C69.8063 395.106 69.9688 395.335 70.1763 395.519C70.6857 395.885 71.3049 396.066 71.9315 396.033C72.8633 396.008 73.7799 395.792 74.6247 395.398V391.075H76.3496V400.567H74.6247L74.5944 396.607ZM63.761 398.996C63.3994 399.488 62.9211 399.882 62.369 400.144C61.7915 400.413 61.1603 400.548 60.5231 400.537C59.9686 400.601 59.4069 400.538 58.8802 400.353C58.3535 400.169 57.8756 399.867 57.4824 399.471C57.0891 399.076 56.7909 398.596 56.61 398.069C56.4291 397.541 56.3702 396.979 56.4379 396.426V390.955H58.1628V396.214C58.116 396.968 58.3535 397.712 58.8285 398.3C59.0747 398.541 59.369 398.728 59.6923 398.848C60.0156 398.968 60.3606 399.018 60.7047 398.996C61.1001 399.018 61.4959 398.957 61.8662 398.816C62.2364 398.676 62.5728 398.459 62.8532 398.179C63.1456 397.871 63.3694 397.504 63.5102 397.102C63.651 396.701 63.7055 396.275 63.6703 395.852V390.955H65.3649V400.447H63.761V398.996ZM58.3141 412.417V421.879H56.6497V420.368C56.2778 420.889 55.7775 421.305 55.1972 421.577C54.5908 421.859 53.9294 422.003 53.2605 422C52.3915 422.013 51.5348 421.794 50.7791 421.365C50.0597 420.98 49.4702 420.391 49.0845 419.672C48.6686 418.896 48.4511 418.029 48.4511 417.148C48.4511 416.268 48.6686 415.401 49.0845 414.624C49.4702 413.905 50.0597 413.317 50.7791 412.931C51.5377 412.513 52.3943 412.304 53.2605 412.327C53.9041 412.318 54.5426 412.442 55.1367 412.689C55.7074 412.948 56.2061 413.343 56.5892 413.838V412.417H58.3141ZM56.1958 415.44C55.9291 414.949 55.531 414.54 55.0459 414.261C54.5462 413.984 53.9837 413.838 53.4118 413.838C52.8396 413.835 52.2765 413.981 51.7777 414.261C51.2926 414.54 50.8946 414.949 50.6278 415.44C50.3286 415.964 50.1819 416.561 50.2042 417.163C50.1826 417.775 50.3291 418.382 50.6278 418.917C50.8946 419.408 51.2926 419.816 51.7777 420.096C52.2765 420.376 52.8396 420.522 53.4118 420.519C53.9837 420.519 54.5462 420.373 55.0459 420.096C55.531 419.816 55.9291 419.408 56.1958 418.917C56.4708 418.374 56.6061 417.771 56.5892 417.163C56.6114 416.555 56.4759 415.951 56.1958 415.41V415.44ZM48.4188 404.044C47.5582 404.048 46.7017 403.926 45.8769 403.681C45.1419 403.478 44.4603 403.117 43.8797 402.623L44.727 401.293C45.1978 401.712 45.7559 402.022 46.361 402.2C47.0148 402.418 47.6993 402.53 48.3885 402.532C49.2765 402.596 50.1547 402.314 50.8396 401.746C51.1346 401.428 51.3576 401.05 51.4934 400.638C51.6291 400.226 51.6745 399.789 51.6264 399.358V398.603C51.2294 399.082 50.72 399.455 50.1437 399.691C49.5339 399.959 48.8733 400.094 48.207 400.084C47.352 400.091 46.509 399.883 45.7558 399.479C45.0272 399.139 44.4239 398.578 44.031 397.877C43.6062 397.153 43.3866 396.328 43.3955 395.489C43.3787 394.649 43.5989 393.821 44.031 393.101C44.4313 392.398 45.0317 391.83 45.7558 391.468C46.5164 391.087 47.3561 390.891 48.207 390.894C48.8918 390.896 49.5699 391.029 50.2042 391.287C50.8045 391.539 51.3267 391.946 51.7172 392.466V390.985H53.3513V399.026C53.4127 399.688 53.334 400.356 53.1202 400.986C52.9065 401.617 52.5625 402.195 52.1106 402.683C51.6161 403.141 51.0344 403.495 50.4001 403.724C49.7658 403.952 49.092 404.051 48.4188 404.014V404.044ZM50.7489 393.252C50.4352 392.965 50.0679 392.742 49.6681 392.597C49.2683 392.452 48.8438 392.387 48.4188 392.406C47.5423 392.368 46.6853 392.671 46.0282 393.252C45.7311 393.542 45.4972 393.891 45.3411 394.276C45.1849 394.661 45.1097 395.074 45.1203 395.489C45.1213 396.05 45.2672 396.602 45.544 397.091C45.8321 397.553 46.2398 397.929 46.7242 398.179C47.2457 398.454 47.8294 398.589 48.4188 398.572C48.9981 398.586 49.5711 398.45 50.0831 398.179C50.5675 397.929 50.9752 397.553 51.2633 397.091C51.5401 396.602 51.686 396.05 51.687 395.489C51.7101 395.065 51.6378 394.641 51.4755 394.249C51.3131 393.857 51.0648 393.506 50.7489 393.222V393.252ZM39.3405 399.026C38.9788 399.518 38.5005 399.913 37.9485 400.174C37.1595 400.516 36.2924 400.638 35.4398 400.526C34.5871 400.414 33.7807 400.073 33.1068 399.54C32.7342 399.133 32.4461 398.656 32.2591 398.137C32.0721 397.618 31.9899 397.067 32.0174 396.517V391.045H33.7423V396.305C33.6955 397.059 33.933 397.803 34.408 398.391C34.6588 398.634 34.9583 398.822 35.2868 398.942C35.6154 399.062 35.9656 399.111 36.3144 399.086C37.1102 399.107 37.8821 398.814 38.463 398.27C39.0158 397.624 39.2977 396.791 39.2497 395.942V391.045H40.9746V400.537H39.3405V399.026ZM33.8633 421.909H32.32V414.987L28.7492 420.851H27.9927L24.4824 414.987V421.909H22.9089V412.448H24.6943L28.4163 418.826L32.2595 412.448H33.8633V421.909ZM27.5388 399.933C26.798 400.341 25.9637 400.549 25.1179 400.537C24.4513 400.55 23.7901 400.416 23.1812 400.144C22.6152 399.906 22.1239 399.519 21.759 399.026V403.893H20.0038V395.731C19.9913 394.844 20.2103 393.968 20.6393 393.191C21.0532 392.476 21.648 391.882 22.3642 391.468C23.1593 391.06 24.0424 390.853 24.9363 390.864C25.821 390.849 26.6953 391.057 27.4783 391.468C28.2008 391.874 28.7976 392.47 29.2031 393.191C29.6023 393.966 29.8 394.829 29.7781 395.7C29.7999 396.581 29.6023 397.454 29.2031 398.24C28.8284 398.956 28.2492 399.545 27.5388 399.933ZM27.6901 393.887C27.4233 393.395 27.0253 392.987 26.5402 392.708C26.0414 392.428 25.4783 392.282 24.9061 392.285C24.4804 392.266 24.0555 392.336 23.6592 392.493C23.2629 392.649 22.9041 392.887 22.6063 393.191C22.3065 393.516 22.0746 393.897 21.9239 394.312C21.7732 394.728 21.7069 395.169 21.7287 395.61C21.7119 396.218 21.8471 396.82 22.1221 397.363C22.3877 397.846 22.7733 398.252 23.2417 398.542C23.7523 398.817 24.3264 398.952 24.9061 398.935C25.4758 398.949 26.0391 398.813 26.5402 398.542C27.0171 398.253 27.4128 397.847 27.6901 397.363C28.0036 396.861 28.1905 396.291 28.2348 395.7C28.2016 395.089 28.0142 394.497 27.6901 393.977V393.887ZM19.792 419.551C19.3664 420.268 18.7615 420.862 18.0369 421.274C17.2591 421.703 16.3831 421.922 15.495 421.909C14.6064 421.926 13.7292 421.707 12.953 421.274C12.2129 420.872 11.5959 420.276 11.1677 419.551C10.7518 418.786 10.534 417.929 10.534 417.057C10.534 416.186 10.7518 415.329 11.1677 414.564C11.6499 413.851 12.3202 413.286 13.1043 412.931C13.8887 412.523 14.762 412.315 15.6463 412.327C16.5301 412.319 17.4025 412.527 18.1882 412.931C18.9128 413.344 19.5177 413.938 19.9433 414.654C20.3591 415.42 20.5769 416.277 20.5769 417.148C20.5769 418.019 20.3591 418.876 19.9433 419.642L19.792 419.551ZM18.279 415.319C18.0122 414.828 17.6141 414.42 17.129 414.14C16.6294 413.862 16.0669 413.717 15.495 413.717C14.923 413.717 14.3606 413.862 13.8609 414.14C13.3758 414.42 12.9777 414.828 12.711 415.319C12.4117 415.843 12.265 416.44 12.2873 417.042C12.2657 417.654 12.4122 418.261 12.711 418.796C12.9777 419.287 13.3758 419.695 13.8609 419.975C14.3606 420.253 14.923 420.398 15.495 420.398C16.0669 420.398 16.6294 420.253 17.129 419.975C17.6141 419.695 18.0122 419.287 18.279 418.796C18.554 418.253 18.6892 417.65 18.6723 417.042C18.6743 416.475 18.5394 415.915 18.279 415.41V415.319ZM14.6779 399.661C13.6786 400.213 12.5518 400.495 11.4097 400.477C10.3567 400.487 9.31745 400.238 8.38365 399.751C7.46206 399.287 6.67924 398.589 6.11409 397.726C5.52716 396.82 5.18327 395.779 5.11548 394.703H2.78539V400.265H1V387.75H2.78539V393.101H5.08522C5.21084 392.095 5.57586 391.133 6.14972 390.297C6.72358 389.461 7.48959 388.774 8.38365 388.294C9.32453 387.831 10.3607 387.593 11.4097 387.599C12.5518 387.581 13.6786 387.863 14.6779 388.415C15.6289 388.961 16.4134 389.756 16.9475 390.713C17.5038 391.717 17.7957 392.845 17.7957 393.993C17.7957 395.14 17.5038 396.269 16.9475 397.272C16.4405 398.296 15.6536 399.156 14.6779 399.751V399.661ZM15.4042 391.62C15.021 390.909 14.4438 390.322 13.7398 389.927C13.0334 389.512 12.229 389.294 11.4097 389.294C10.5905 389.294 9.78604 389.512 9.07965 389.927C8.39172 390.333 7.82697 390.918 7.44557 391.62C7.04785 392.38 6.84013 393.225 6.84013 394.083C6.84013 394.941 7.04785 395.786 7.44557 396.547C7.83429 397.251 8.39681 397.844 9.07965 398.27C9.79192 398.667 10.594 398.876 11.4097 398.876C12.2254 398.876 13.0276 398.667 13.7398 398.27C14.4382 397.854 15.0128 397.259 15.4042 396.547C15.8019 395.786 16.0096 394.941 16.0096 394.083C16.0096 393.225 15.8019 392.38 15.4042 391.62ZM2.72487 416.408H4.75235L7.77843 412.417H9.62435L6.0233 416.952L10.0783 421.879H7.89948L4.87339 417.889H2.72487V421.879H1V412.417H2.72487V416.408ZM46.0282 421.879H44.3033V413.899H38.9471V421.879H37.313V412.417H46.119L46.0282 421.879ZM63.3374 416.438H68.7541V412.417H70.6V421.879H68.9054V417.919H63.3374V421.879H61.5217V412.417H63.2466L63.3374 416.438Z" fill="#101F30"/>
</svg>
