<svg width="220" height="128" viewBox="0 0 220 128" fill="none" xmlns="http://www.w3.org/2000/svg">
<path d="M160.696 63.749C160.675 79.2916 154.948 94.2915 144.592 105.93C134.235 117.568 119.963 125.043 104.456 126.95C88.9487 128.857 73.2754 125.065 60.3814 116.286C47.4874 107.508 38.2605 94.3467 34.4348 79.2771V127.498H0V0H34.4348V48.2209C37.7215 35.2339 45.0329 23.6048 55.3333 14.981C65.6337 6.35722 78.4008 1.17599 91.8261 0.171266V34.6528C84.8805 35.7739 78.5627 39.317 74.003 44.6479C69.4434 49.9788 66.9396 56.7497 66.9396 63.749C66.9396 70.7483 69.4434 77.5192 74.003 82.8502C78.5627 88.1811 84.8805 91.7241 91.8261 92.8452C92.2119 92.9222 92.6014 92.9793 92.993 93.0165C93.6817 93.0165 94.3896 93.1687 95.0974 93.2068H96.6087C104.466 93.2068 112.003 90.1044 117.562 84.5811C123.122 79.0578 126.251 71.5652 126.261 63.749C126.261 63.4255 126.261 63.121 126.261 62.7975H160.696C160.696 63.102 160.696 63.4255 160.696 63.749Z" fill="#101F30"/>
<path d="M220 63.749V127.498H185.565V63.749C185.692 55.9262 182.69 48.3737 177.218 42.753C171.747 37.1322 164.256 33.9036 156.391 33.7775C148.527 33.6513 140.935 36.6379 135.284 42.0802C129.633 47.5225 126.388 54.9748 126.261 62.7975C126.261 63.121 126.261 63.4255 126.261 63.749C126.261 71.5718 123.137 79.0742 117.576 84.6057C112.015 90.1373 104.473 93.2448 96.6087 93.2448C95.006 93.2474 93.406 93.1137 91.8261 92.8452V63.749C91.8261 46.8417 98.5781 30.6269 110.597 18.6717C122.615 6.7164 138.916 0 155.913 0C172.91 0 189.211 6.7164 201.229 18.6717C213.248 30.6269 220 46.8417 220 63.749Z" fill="#17AADF"/>
</svg>
