<svg width="53" height="31" viewBox="0 0 53 31" fill="none" xmlns="http://www.w3.org/2000/svg">
<path d="M38.713 15.3577C38.708 19.1021 37.3284 22.7157 34.8335 25.5194C32.3385 28.3232 28.9001 30.124 25.1643 30.5834C21.4285 31.0429 17.6527 30.1293 14.5464 28.0144C11.4401 25.8995 9.2173 22.729 8.29565 19.0986V30.7154H0V0H8.29565V11.6169C9.08745 8.48816 10.8488 5.68661 13.3303 3.60906C15.8118 1.53151 18.8875 0.283306 22.1217 0.0412595V8.34818C20.4485 8.61827 18.9265 9.47182 17.828 10.7561C16.7295 12.0403 16.1263 13.6715 16.1263 15.3577C16.1263 17.0439 16.7295 18.6751 17.828 19.9594C18.9265 21.2436 20.4485 22.0972 22.1217 22.3673C22.2147 22.3858 22.3085 22.3996 22.4029 22.4085C22.5688 22.4085 22.7393 22.4452 22.9098 22.4544H23.2739C25.1669 22.4544 26.9825 21.707 28.3219 20.3764C29.6613 19.0457 30.415 17.2407 30.4174 15.3577C30.4174 15.2798 30.4174 15.2064 30.4174 15.1285H38.713C38.713 15.2018 38.713 15.2798 38.713 15.3577Z" fill="white"/>
<path d="M53 15.3577V30.7154H44.7044V15.3577C44.7349 13.4731 44.0116 11.6537 42.6936 10.2996C41.3755 8.94549 39.5707 8.1677 37.6761 8.1373C35.7815 8.1069 33.9524 8.8264 32.5911 10.1375C31.2299 11.4486 30.448 13.2439 30.4174 15.1285C30.4174 15.2064 30.4174 15.2798 30.4174 15.3577C30.4174 17.2423 29.6648 19.0497 28.3251 20.3823C26.9855 21.7149 25.1685 22.4635 23.2739 22.4635C22.8878 22.4641 22.5024 22.4319 22.1217 22.3673V15.3577C22.1217 11.2846 23.7484 7.3783 26.6438 4.49817C29.5392 1.61804 33.4662 0 37.5609 0C41.6556 0 45.5826 1.61804 48.478 4.49817C51.3734 7.3783 53 11.2846 53 15.3577Z" fill="#17AADF"/>
</svg>
