<svg width="167" height="35" viewBox="0 0 167 35" fill="none" xmlns="http://www.w3.org/2000/svg">
<path d="M44.1132 17.5C44.1075 21.7667 42.5354 25.8843 39.6924 29.0792C36.8495 32.274 32.9314 34.326 28.6745 34.8496C24.4177 35.3731 20.1151 34.3321 16.5755 31.9222C13.036 29.5123 10.503 25.8995 9.45283 21.7627V35H0V0H9.45283V13.2373C10.3551 9.67219 12.3622 6.47984 15.1898 4.1125C18.0174 1.74515 21.5221 0.322825 25.2076 0.0470149V9.51269C23.3009 9.82045 21.5666 10.7931 20.3149 12.2565C19.0632 13.7199 18.3758 15.5786 18.3758 17.5C18.3758 19.4214 19.0632 21.2801 20.3149 22.7435C21.5666 24.2069 23.3009 25.1796 25.2076 25.4873C25.3134 25.5084 25.4204 25.5241 25.5279 25.5343C25.717 25.5343 25.9113 25.5761 26.1056 25.5866H26.5204C28.6775 25.5866 30.7463 24.7349 32.2725 23.2187C33.7988 21.7025 34.6576 19.6457 34.6604 17.5C34.6604 17.4112 34.6604 17.3276 34.6604 17.2388H44.1132C44.1132 17.3224 44.1132 17.4112 44.1132 17.5Z" fill="white"/>
<path d="M60.3931 17.5V35H50.9403V17.5C50.9751 15.3525 50.1509 13.2793 48.649 11.7363C47.147 10.1933 45.0905 9.30702 42.9316 9.27239C40.7728 9.23775 38.6885 10.0576 37.1373 11.5516C35.5862 13.0456 34.6952 15.0913 34.6604 17.2388C34.6604 17.3276 34.6604 17.4112 34.6604 17.5C34.6604 19.6475 33.8028 21.707 32.2762 23.2255C30.7497 24.7439 28.6793 25.597 26.5204 25.597C26.0805 25.5977 25.6412 25.561 25.2076 25.4873V17.5C25.2076 12.8587 27.0611 8.40752 30.3604 5.12563C33.6596 1.84374 38.1344 0 42.8003 0C47.4662 0 51.941 1.84374 55.2403 5.12563C58.5396 8.40752 60.3931 12.8587 60.3931 17.5Z" fill="#17AADF"/>
<path fill-rule="evenodd" clip-rule="evenodd" d="M164.416 23.9097V16.5963H167V23.9097H164.416ZM160.099 24.1239C157.649 24.1239 156.423 23.0791 156.423 20.9896V16.591H158.997V18.9104C159.233 18.7652 159.492 18.661 159.763 18.6022C160.128 18.5159 160.502 18.4755 160.877 18.4821C161.648 18.4367 162.408 18.6789 163.009 19.1612C163.28 19.4208 163.489 19.7365 163.624 20.0859C163.758 20.4353 163.814 20.8098 163.786 21.1828C163.812 21.6017 163.734 22.0204 163.56 22.4027C163.386 22.785 163.121 23.1194 162.788 23.3769C161.997 23.9082 161.053 24.1702 160.099 24.1239ZM160.903 20.4672C160.798 20.3689 160.674 20.2932 160.539 20.2447C160.403 20.1961 160.259 20.1759 160.115 20.1851C159.89 20.1787 159.667 20.2253 159.464 20.3209C159.284 20.3995 159.128 20.5238 159.012 20.6813V21.2507C158.995 21.552 159.092 21.8486 159.285 22.0813C159.392 22.1867 159.519 22.2683 159.659 22.3205C159.8 22.3728 159.95 22.3945 160.099 22.3843C160.248 22.3952 160.397 22.3731 160.536 22.3198C160.675 22.2666 160.8 22.1833 160.903 22.0761C161.093 21.844 161.191 21.55 161.176 21.2507C161.187 21.1061 161.168 20.9607 161.122 20.8234C161.075 20.686 161 20.5595 160.903 20.4515V20.4672ZM153.341 23.6015C152.763 23.9194 152.11 24.0798 151.45 24.0664C151.083 24.0868 150.716 24.0288 150.374 23.8964C150.032 23.7639 149.722 23.56 149.465 23.2985V26.5634H146.876V20.2948C146.863 19.5942 147.045 18.9038 147.401 18.2993C147.75 17.7203 148.261 17.2555 148.872 16.9619C149.563 16.6359 150.322 16.4749 151.088 16.4918C151.815 16.4751 152.535 16.6328 153.188 16.9515C153.77 17.2412 154.251 17.698 154.57 18.2627C154.901 18.879 155.067 19.5698 155.053 20.2687C155.067 20.9588 154.912 21.642 154.601 22.259C154.318 22.8058 153.882 23.2594 153.346 23.5649L153.341 23.6015ZM152.086 19.0254C151.946 18.8672 151.773 18.742 151.578 18.6588C151.384 18.5757 151.173 18.5367 150.962 18.5448C150.751 18.5364 150.541 18.5752 150.347 18.6584C150.154 18.7416 149.981 18.867 149.843 19.0254C149.572 19.3916 149.426 19.8346 149.426 20.2896C149.426 20.7445 149.572 21.1875 149.843 21.5537C149.983 21.711 150.157 21.8352 150.351 21.9174C150.546 21.9996 150.756 22.0378 150.967 22.0291C151.178 22.0357 151.388 21.9961 151.583 21.913C151.777 21.83 151.95 21.7055 152.091 21.5485C152.367 21.1854 152.517 20.7424 152.517 20.2869C152.517 19.8315 152.367 19.3885 152.091 19.0254H152.086ZM142.108 22.1075C142.419 22.1151 142.728 22.0655 143.021 21.9612C143.309 21.8458 143.573 21.6814 143.804 21.4754L145.153 22.8754C144.453 23.6694 143.403 24.0664 142.003 24.0664C141.217 24.0828 140.438 23.9164 139.729 23.5806C139.094 23.2894 138.556 22.8243 138.178 22.2397C137.799 21.6552 137.596 20.9755 137.592 20.2803C137.588 19.5851 137.784 18.9032 138.156 18.3145C138.528 17.7259 139.06 17.2549 139.692 16.9567C140.341 16.6248 141.063 16.4579 141.792 16.4709C142.474 16.4625 143.149 16.6127 143.762 16.9097C144.348 17.1946 144.841 17.6382 145.185 18.1896C145.547 18.7954 145.729 19.4909 145.71 20.1955L140.459 21.1933C140.614 21.4874 140.855 21.7283 141.15 21.8848C141.445 22.0412 141.78 22.1061 142.113 22.0709L142.108 22.1075ZM143.221 19.3388C143.133 19.042 142.948 18.7828 142.696 18.6022C142.437 18.4024 142.12 18.2907 141.792 18.2836C141.593 18.2754 141.394 18.3073 141.207 18.3773C141.02 18.4473 140.85 18.554 140.705 18.691C140.404 19.0115 140.233 19.4326 140.227 19.8716L143.221 19.3388ZM143.179 15.7604C143.038 15.7661 142.898 15.7436 142.766 15.6942C142.634 15.6449 142.514 15.5697 142.412 15.4731C142.31 15.3746 142.23 15.2556 142.178 15.1242C142.125 14.9928 142.101 14.8518 142.108 14.7104C142.103 14.5686 142.128 14.4273 142.18 14.2953C142.233 14.1633 142.312 14.0432 142.412 13.9425C142.622 13.7513 142.897 13.6452 143.181 13.6452C143.466 13.6452 143.741 13.7513 143.951 13.9425C144.051 14.0432 144.13 14.1633 144.183 14.2953C144.235 14.4273 144.26 14.5686 144.255 14.7104C144.262 14.8518 144.238 14.9928 144.185 15.1242C144.133 15.2556 144.053 15.3746 143.951 15.4731C143.846 15.5632 143.724 15.6317 143.593 15.6747C143.461 15.7177 143.322 15.7344 143.184 15.7239L143.179 15.7604ZM140.296 15.7604C140.155 15.7661 140.015 15.7436 139.883 15.6942C139.751 15.6449 139.631 15.5697 139.529 15.4731C139.426 15.3748 139.346 15.2561 139.292 15.1247C139.239 14.9932 139.214 14.8521 139.219 14.7104C139.219 14.4264 139.333 14.154 139.535 13.9532C139.736 13.7524 140.01 13.6396 140.296 13.6396C140.581 13.6396 140.855 13.7524 141.057 13.9532C141.259 14.154 141.372 14.4264 141.372 14.7104C141.377 14.8521 141.353 14.9932 141.299 15.1247C141.246 15.2561 141.165 15.3748 141.062 15.4731C140.852 15.6536 140.578 15.7438 140.301 15.7239L140.296 15.7604ZM133.611 21.3448H130.985V23.9097H128.411V16.5963H130.985V19.3284H133.611V16.591H136.194V23.9045H133.611V21.3448ZM123.937 20.1433C123.971 19.7416 123.867 19.3404 123.643 19.0045C123.544 18.8847 123.419 18.7897 123.277 18.7271C123.134 18.6645 122.979 18.636 122.824 18.644C122.647 18.6371 122.471 18.6696 122.308 18.7392C122.145 18.8088 122 18.9137 121.884 19.0463C121.621 19.3996 121.494 19.8353 121.527 20.2739V23.9306H118.943V20.1433C118.943 19.1403 118.57 18.644 117.83 18.644C117.65 18.6366 117.471 18.6688 117.306 18.7383C117.141 18.8079 116.993 18.9131 116.874 19.0463C116.612 19.4003 116.488 19.836 116.522 20.2739V23.9306H113.959V16.6172H116.422V17.3851C116.683 17.0927 117.009 16.864 117.373 16.7164C117.765 16.5676 118.182 16.4932 118.602 16.497C119.081 16.4887 119.556 16.585 119.993 16.7791C120.399 16.9682 120.743 17.2669 120.986 17.641C121.277 17.2713 121.656 16.9789 122.089 16.7896C122.548 16.5921 123.043 16.4924 123.543 16.497C123.941 16.477 124.339 16.5386 124.712 16.6779C125.085 16.8172 125.426 17.0312 125.712 17.3067C126.003 17.6394 126.225 18.0266 126.364 18.4455C126.502 18.8643 126.556 19.3066 126.521 19.7463V23.9254H123.937V20.1433ZM124.268 10.2179C123.69 10.5351 123.038 10.6955 122.377 10.6828C122.011 10.7046 121.645 10.6482 121.303 10.5176C120.96 10.3869 120.65 10.185 120.392 9.92537V13.1903H117.803V6.92164C117.791 6.21944 117.972 5.52728 118.328 4.9209C118.677 4.34197 119.188 3.87711 119.799 3.58358C120.491 3.2575 121.25 3.09652 122.015 3.11343C122.742 3.09678 123.463 3.25445 124.116 3.57314C124.706 3.86333 125.194 4.32632 125.513 4.9C125.845 5.51586 126.012 6.20701 125.996 6.90597C125.997 7.59328 125.831 8.27069 125.513 8.8806C125.238 9.43791 124.805 9.90289 124.268 10.2179ZM123.008 5.64179C122.864 5.49034 122.69 5.36968 122.498 5.28722C122.306 5.20475 122.098 5.16222 121.889 5.16222C121.68 5.16222 121.472 5.20475 121.28 5.28722C121.088 5.36968 120.914 5.49034 120.77 5.64179C120.479 5.99741 120.329 6.44751 120.35 6.90597C120.326 7.36553 120.474 7.81765 120.765 8.17537C120.912 8.32305 121.086 8.44031 121.279 8.52034C121.471 8.60037 121.678 8.64158 121.886 8.64158C122.095 8.64158 122.302 8.60037 122.494 8.52034C122.686 8.44031 122.861 8.32305 123.008 8.17537C123.307 7.82567 123.461 7.37533 123.438 6.91642C123.464 6.45241 123.31 5.9963 123.008 5.64179ZM113.03 8.72388C113.342 8.73193 113.654 8.68234 113.949 8.57761C114.236 8.46219 114.501 8.29778 114.731 8.09179L116.081 9.49701C115.381 10.2876 114.33 10.6828 112.93 10.6828C112.144 10.6992 111.365 10.5329 110.656 10.197C110.03 9.9036 109.501 9.44058 109.128 8.86115C108.755 8.28171 108.554 7.60938 108.548 6.9214C108.542 6.23342 108.731 5.5577 109.094 4.97189C109.456 4.38607 109.978 3.91393 110.598 3.6097C111.227 3.29845 111.918 3.13255 112.62 3.12441C113.322 3.11626 114.017 3.26609 114.652 3.56269C115.237 3.84794 115.728 4.29159 116.07 4.84254C116.435 5.44739 116.617 6.14363 116.595 6.84851L111.344 7.84627C111.501 8.14778 111.747 8.39382 112.05 8.55087C112.353 8.70792 112.696 8.76834 113.035 8.72388H113.03ZM114.148 5.96045C114.065 5.66159 113.879 5.4011 113.623 5.22388C113.358 5.03656 113.039 4.93945 112.714 4.94702C112.515 4.93862 112.315 4.97089 112.128 5.04185C111.941 5.11281 111.771 5.22097 111.627 5.3597C111.325 5.67963 111.154 6.10105 111.15 6.5403L114.148 5.96045ZM110.53 16.9306C111.113 17.2187 111.595 17.6759 111.911 18.2418C112.245 18.8571 112.412 19.5486 112.394 20.2478C112.41 20.9375 112.257 21.6207 111.948 22.2381C111.666 22.7941 111.225 23.2554 110.682 23.5649C110.104 23.8821 109.452 24.0425 108.792 24.0299C108.425 24.0502 108.058 23.9922 107.715 23.8598C107.373 23.7273 107.063 23.5235 106.806 23.2619V26.5269H104.217V20.2582C104.205 19.5577 104.387 18.8672 104.743 18.2627C105.09 17.6826 105.601 17.2174 106.213 16.9254C106.905 16.5987 107.664 16.4377 108.429 16.4552C109.16 16.4418 109.882 16.6049 110.535 16.9306H110.53ZM108.303 18.4978C108.092 18.489 107.882 18.5277 107.689 18.6109C107.495 18.6941 107.323 18.8197 107.185 18.9784C106.913 19.3446 106.767 19.7876 106.767 20.2425C106.767 20.6975 106.913 21.1405 107.185 21.5067C107.329 21.6576 107.503 21.7778 107.696 21.8599C107.889 21.942 108.096 21.9843 108.306 21.9843C108.515 21.9843 108.723 21.942 108.916 21.8599C109.108 21.7778 109.282 21.6576 109.427 21.5067C109.703 21.1436 109.853 20.7006 109.853 20.2451C109.853 19.7897 109.703 19.3467 109.427 18.9836C109.288 18.8262 109.116 18.7018 108.922 18.6195C108.728 18.5372 108.519 18.4992 108.308 18.5082L108.303 18.4978ZM107.657 8.35821C107.658 8.59225 107.612 8.82413 107.522 9.0403C107.432 9.25646 107.299 9.45258 107.132 9.61716C106.748 10.0109 106.266 10.2974 105.735 10.4478C105.099 10.6417 104.436 10.7351 103.771 10.7246C102.622 10.7456 101.482 10.5304 100.421 10.0925L101.088 8.35821C101.913 8.69034 102.797 8.8555 103.687 8.84403C104.02 8.85887 104.352 8.79999 104.659 8.67164C104.766 8.63202 104.858 8.56065 104.922 8.46721C104.987 8.37377 105.022 8.26278 105.021 8.14925C105.027 8.06443 105.011 7.97946 104.973 7.90319C104.935 7.82693 104.877 7.76217 104.806 7.71567C104.599 7.61238 104.369 7.5655 104.139 7.57985H102.563V6.09627H103.923C104.527 6.09627 104.832 5.90821 104.832 5.54254C104.832 5.17687 104.428 4.95746 103.624 4.95746C102.82 4.97844 102.027 5.143 101.282 5.44328L100.667 3.75597C101.664 3.33364 102.735 3.11001 103.818 3.09776C104.71 3.05874 105.597 3.23813 106.402 3.62015C106.704 3.74981 106.962 3.96402 107.144 4.2367C107.325 4.50939 107.424 4.82877 107.426 5.15597C107.426 5.48615 107.321 5.80793 107.127 6.07537C106.917 6.37964 106.634 6.62593 106.302 6.79105C106.683 6.8983 107.025 7.11015 107.29 7.40224C107.522 7.66743 107.653 8.00626 107.657 8.35821ZM102.474 16.5858V23.8993H99.9899V23.1679C99.7172 23.4665 99.3797 23.6993 99.003 23.8487C98.6262 23.9981 98.2202 24.06 97.8158 24.0299C97.1745 24.0365 96.5427 23.8763 95.983 23.5649C95.4335 23.2491 94.9827 22.788 94.6806 22.2328C94.363 21.6151 94.1974 20.9312 94.1974 20.2373C94.1974 19.5435 94.363 18.8595 94.6806 18.2418C94.9819 17.6915 95.4334 17.2369 95.983 16.9306C96.5432 16.6211 97.175 16.4626 97.8158 16.4709C98.1927 16.4523 98.5694 16.5109 98.9226 16.643C99.2757 16.775 99.5979 16.9778 99.8692 17.2388V16.591L102.474 16.5858ZM99.4963 18.9627C99.3499 18.8166 99.176 18.7007 98.9845 18.6216C98.793 18.5425 98.5877 18.5017 98.3803 18.5017C98.173 18.5017 97.9677 18.5425 97.7762 18.6216C97.5847 18.7007 97.4107 18.8166 97.2644 18.9627C96.9574 19.3126 96.8008 19.7685 96.8285 20.2321C96.8011 20.7004 96.9574 21.161 97.2644 21.5172C97.4107 21.6633 97.5847 21.7792 97.7762 21.8583C97.9677 21.9374 98.173 21.9781 98.3803 21.9781C98.5877 21.9781 98.793 21.9374 98.9845 21.8583C99.176 21.7792 99.3499 21.6633 99.4963 21.5172C99.8033 21.161 99.9595 20.7004 99.9322 20.2321C99.9527 19.7674 99.7886 19.3133 99.4753 18.9679L99.4963 18.9627ZM96.6762 9.77388C96.4007 10.0725 96.0591 10.3032 95.6784 10.4478C95.2932 10.6032 94.8809 10.6813 94.4653 10.6776C94.0484 10.6982 93.6316 10.6348 93.2399 10.4911C92.8483 10.3475 92.4898 10.1266 92.1861 9.84179C91.8799 9.49943 91.6466 9.09886 91.5004 8.6643C91.3541 8.22973 91.298 7.77019 91.3353 7.31343V3.24403H93.9244V6.90075C93.8897 7.32444 93.9988 7.74745 94.2342 8.10224C94.3471 8.23104 94.4882 8.33239 94.6466 8.3985C94.805 8.46461 94.9765 8.49372 95.148 8.48358C95.3356 8.48892 95.5222 8.45334 95.6946 8.37934C95.867 8.30534 96.021 8.19471 96.1458 8.05522C96.4354 7.68581 96.5742 7.22127 96.5344 6.75448V3.24403H99.1182V10.5575H96.6552L96.6762 9.77388ZM95.148 2.54403C94.4599 2.59973 93.775 2.4048 93.2207 1.99552C93.0009 1.77618 92.831 1.51256 92.7223 1.22241C92.6136 0.932261 92.5687 0.622316 92.5905 0.313435H94.2605C94.2454 0.57541 94.3235 0.834302 94.481 1.04478C94.5655 1.12919 94.6677 1.19403 94.7802 1.23466C94.8928 1.2753 95.013 1.29073 95.1322 1.27985C95.2554 1.29006 95.3794 1.27441 95.4961 1.23391C95.6128 1.19341 95.7196 1.12898 95.8097 1.04478C95.9733 0.837409 96.0521 0.576166 96.0303 0.313435H97.7318C97.7571 0.622623 97.7138 0.933574 97.6049 1.22426C97.496 1.51495 97.3242 1.77825 97.1016 1.99552C96.5369 2.40404 95.8441 2.59856 95.148 2.54403ZM87.0396 9.85746C86.7659 10.1542 86.4279 10.385 86.0512 10.5326C85.6745 10.6801 85.269 10.7404 84.8654 10.709C84.2242 10.7157 83.5923 10.5554 83.0326 10.244C82.4772 9.92173 82.0255 9.44883 81.7302 8.8806C81.3975 8.26663 81.231 7.57716 81.2471 6.87985C81.2297 6.18573 81.3963 5.49929 81.7302 4.88955C82.0298 4.3366 82.4816 3.87998 83.0326 3.57314C83.5948 3.27088 84.2265 3.11964 84.8654 3.13433C85.2417 3.11311 85.6183 3.16944 85.9716 3.29979C86.3249 3.43013 86.6474 3.63168 86.9188 3.89179V3.24403H89.5025V10.5575H87.0396V9.85746ZM86.5144 5.64702C86.368 5.50091 86.1941 5.38499 86.0026 5.30589C85.8111 5.22679 85.6058 5.18608 85.3984 5.18608C85.1911 5.18608 84.9858 5.22679 84.7943 5.30589C84.6028 5.38499 84.4289 5.50091 84.2825 5.64702C83.9774 5.99805 83.8212 6.4531 83.8466 6.91642C83.8201 7.38622 83.9761 7.84818 84.2825 8.20672C84.4289 8.35282 84.6028 8.46874 84.7943 8.54784C84.9858 8.62694 85.1911 8.66765 85.3984 8.66765C85.6058 8.66765 85.8111 8.62694 86.0026 8.54784C86.1941 8.46874 86.368 8.35282 86.5144 8.20672C86.8208 7.84818 86.9768 7.38622 86.9503 6.91642C86.9856 6.4457 86.8327 5.98014 86.5249 5.6209L86.5144 5.64702ZM77.9018 10.5888L75.7382 6.96866H74.5146V10.5888H71.8415V1.11269H74.5251V4.7694H75.8169L78.0909 1.11269H80.9215L77.9386 5.67313L80.9477 10.5627L77.9018 10.5888ZM74.147 20.2896C74.1123 20.7132 74.2214 21.1363 74.4568 21.491C74.5702 21.6189 74.7115 21.7193 74.8699 21.7845C75.0282 21.8496 75.1995 21.8779 75.3706 21.8672C75.5579 21.8735 75.7443 21.8389 75.9167 21.7658C76.0891 21.6927 76.2433 21.5829 76.3684 21.444C76.6579 21.0725 76.7966 20.6064 76.757 20.1381V16.591H79.346V23.9045H76.883V23.1209C76.612 23.4175 76.276 23.6481 75.901 23.7948C75.5152 23.9482 75.1033 24.0262 74.6879 24.0246C74.2711 24.044 73.8546 23.98 73.4631 23.8365C73.0716 23.6929 72.7131 23.4727 72.4087 23.1888C72.1054 22.8479 71.8742 22.4497 71.7289 22.018C71.5837 21.5863 71.5273 21.13 71.5632 20.6761V16.591H74.147V20.2896ZM92.6482 23.9463H90.0802V18.6284H87.6015V23.9097H85.0335V16.5963H92.6482V23.9463Z" fill="white"/>
<path fill-rule="evenodd" clip-rule="evenodd" d="M135.097 33.9239V33.0933H134.277L133.7 33.9239H133.175L133.815 33.0306C133.636 32.983 133.476 32.8807 133.358 32.7381C133.246 32.5872 133.189 32.4031 133.196 32.2157C133.188 32.0852 133.212 31.9548 133.266 31.8356C133.32 31.7165 133.402 31.6121 133.505 31.5313C133.755 31.3614 134.054 31.2787 134.356 31.2963H135.512V33.9082L135.097 33.9239ZM135.097 31.7194H134.388C133.931 31.7194 133.7 31.8918 133.7 32.2418C133.695 32.3149 133.707 32.3881 133.737 32.4553C133.766 32.5226 133.811 32.5819 133.868 32.6284C134.024 32.728 134.209 32.7722 134.393 32.7537H135.123L135.097 31.7194ZM132.03 33.5269C131.935 33.6634 131.804 33.7717 131.652 33.8403C131.487 33.9156 131.308 33.9531 131.127 33.95C130.821 33.9675 130.521 33.8642 130.292 33.6627C130.186 33.5487 130.105 33.4143 130.053 33.2678C130.002 33.1214 129.981 32.9659 129.992 32.8112V31.3067H130.465V32.7589C130.45 32.9677 130.518 33.174 130.654 33.3336C130.722 33.4014 130.805 33.4538 130.895 33.4872C130.986 33.5206 131.083 33.5341 131.179 33.5269C131.289 33.5328 131.399 33.5159 131.502 33.4773C131.605 33.4386 131.699 33.379 131.778 33.3022C131.93 33.1236 132.007 32.8935 131.993 32.6597V31.3067H132.471V33.9186H132.019L132.03 33.5269ZM128.664 32.8269H127.162V33.9239H126.684V31.3119H127.162V32.4246H128.664V31.3067H129.141V33.9186H128.664V32.8269ZM125.308 33.506C125.204 33.6497 125.065 33.7648 124.903 33.8403C124.738 33.9136 124.559 33.951 124.378 33.95C124.138 33.9549 123.901 33.8973 123.69 33.7828C123.491 33.6737 123.327 33.5107 123.218 33.3127C123.104 33.0976 123.045 32.8583 123.045 32.6153C123.045 32.3723 123.104 32.133 123.218 31.9179C123.33 31.7222 123.494 31.5599 123.69 31.4478C123.902 31.3357 124.138 31.2782 124.378 31.2806C124.559 31.2791 124.738 31.3165 124.903 31.3903C125.061 31.4578 125.197 31.566 125.297 31.7037V31.3067H125.775V33.9186H125.318L125.308 33.506ZM125.182 32.1321C125.108 31.9964 124.997 31.8842 124.861 31.8082C124.721 31.7363 124.565 31.6987 124.407 31.6987C124.249 31.6987 124.093 31.7363 123.953 31.8082C123.819 31.8857 123.708 31.9976 123.633 32.1321C123.556 32.2819 123.517 32.4474 123.517 32.6153C123.517 32.7832 123.556 32.9487 123.633 33.0985C123.71 33.2318 123.82 33.3433 123.953 33.4224C124.092 33.4978 124.248 33.5373 124.407 33.5373C124.566 33.5373 124.722 33.4978 124.861 33.4224C124.995 33.3449 125.106 33.233 125.182 33.0985C125.254 32.9477 125.292 32.7825 125.292 32.6153C125.292 32.448 125.254 32.2829 125.182 32.1321ZM121.889 31.7194H120.398V33.9239H119.92V31.3119H122.362V33.9239H121.889V31.7194ZM118.56 32.0119L117.572 33.6261H117.362L116.391 32.0067V33.9239H115.949V31.3119H116.443L117.493 33.0776L118.544 31.3119H118.99V33.9239H118.56V32.0119ZM114.595 33.7776C114.377 33.8907 114.136 33.9497 113.891 33.9497C113.646 33.9497 113.404 33.8907 113.187 33.7776C112.982 33.6672 112.811 33.5028 112.694 33.3022C112.575 33.0917 112.516 32.8537 112.52 32.6127C112.516 32.3733 112.576 32.1371 112.694 31.9284C112.811 31.7278 112.982 31.5633 113.187 31.453C113.404 31.3399 113.646 31.2809 113.891 31.2809C114.136 31.2809 114.377 31.3399 114.595 31.453C114.799 31.5621 114.969 31.727 115.083 31.9284C115.205 32.1356 115.267 32.3725 115.262 32.6127C115.267 32.8545 115.205 33.0931 115.083 33.3022C114.972 33.5022 114.806 33.6669 114.605 33.7776H114.595ZM114.663 32.1321C114.592 31.9956 114.483 31.8829 114.348 31.8082C114.207 31.7335 114.05 31.6958 113.891 31.6985C113.733 31.6957 113.578 31.7335 113.439 31.8082C113.304 31.8842 113.193 31.9964 113.119 32.1321C113.043 32.2819 113.003 32.4474 113.003 32.6153C113.003 32.7832 113.043 32.9487 113.119 33.0985C113.195 33.2346 113.308 33.3473 113.444 33.4247C113.58 33.502 113.734 33.5409 113.891 33.5373C114.051 33.5409 114.209 33.5012 114.348 33.4224C114.481 33.346 114.591 33.2338 114.663 33.0985C114.739 32.9487 114.779 32.7832 114.779 32.6153C114.779 32.4474 114.739 32.2819 114.663 32.1321ZM111.79 33.9239L110.903 32.8164H110.378V33.9239H109.9V31.3119H110.378V32.4194H110.934L111.79 31.3119H112.315L111.318 32.5709L112.368 33.9291L111.79 33.9239ZM107.179 33.0933H106.36L105.782 33.9239H105.257L105.898 33.0306C105.719 32.983 105.559 32.8807 105.441 32.7381C105.329 32.5872 105.272 32.4031 105.278 32.2157C105.271 32.0852 105.295 31.9548 105.349 31.8356C105.403 31.7165 105.485 31.6121 105.588 31.5313C105.838 31.3614 106.137 31.2787 106.439 31.2963H107.594V33.9082H107.164L107.179 33.0933ZM107.179 31.7194H106.47C106.014 31.7194 105.782 31.8918 105.782 32.2418C105.777 32.3149 105.79 32.3881 105.819 32.4553C105.849 32.5226 105.894 32.5819 105.95 32.6284C106.099 32.7224 106.274 32.7663 106.449 32.7537H107.179V31.7194ZM104.123 33.506C104.019 33.6497 103.88 33.7648 103.719 33.8403C103.553 33.9132 103.374 33.9505 103.193 33.95C102.953 33.9554 102.716 33.8978 102.505 33.7828C102.306 33.6737 102.143 33.5107 102.033 33.3127C101.919 33.0976 101.86 32.8583 101.86 32.6153C101.86 32.3723 101.919 32.133 102.033 31.9179C102.146 31.7222 102.309 31.5599 102.505 31.4478C102.717 31.335 102.954 31.2775 103.193 31.2806C103.374 31.2777 103.554 31.3152 103.719 31.3903C103.878 31.4563 104.016 31.5648 104.118 31.7037V31.3067H104.596V33.9186H104.139L104.123 33.506ZM103.981 32.1321C103.911 31.9956 103.801 31.8829 103.666 31.8082C103.525 31.7342 103.368 31.6964 103.209 31.6985C103.052 31.6957 102.896 31.7335 102.758 31.8082C102.622 31.8842 102.511 31.9964 102.437 32.1321C102.361 32.2819 102.321 32.4474 102.321 32.6153C102.321 32.7832 102.361 32.9487 102.437 33.0985C102.514 33.2346 102.626 33.3473 102.762 33.4247C102.898 33.502 103.053 33.5409 103.209 33.5373C103.369 33.5401 103.527 33.5005 103.666 33.4224C103.8 33.346 103.909 33.2338 103.981 33.0985C104.057 32.9487 104.097 32.7832 104.097 32.6153C104.097 32.4474 104.057 32.2819 103.981 32.1321ZM101.119 33.9239L100.232 32.8164H99.7064V33.9239H99.2547V31.3119H99.7326V32.4194H100.289L101.145 31.3119H101.67L100.673 32.5709L101.723 33.9291L101.119 33.9239ZM97.0438 33.4015C97.1868 33.4797 97.348 33.5194 97.5112 33.5164C97.6533 33.5176 97.7936 33.4853 97.9208 33.4224C98.0459 33.3572 98.1511 33.2598 98.2254 33.1403L98.5878 33.3701C98.4883 33.5482 98.3386 33.6935 98.1572 33.7881C97.9576 33.8843 97.7382 33.9326 97.5165 33.9291C97.2658 33.9336 97.0181 33.8742 96.797 33.7567C96.5905 33.6479 96.4193 33.4831 96.3033 33.2813C96.1813 33.0722 96.1195 32.8336 96.1248 32.5918C96.1194 32.3516 96.1812 32.1147 96.3033 31.9075C96.4193 31.7057 96.5905 31.5409 96.797 31.4321C97.0181 31.3145 97.2658 31.2552 97.5165 31.2597C97.7389 31.2554 97.9589 31.3056 98.1572 31.406C98.3397 31.4965 98.49 31.6405 98.5878 31.8186L98.2254 32.0485C98.1495 31.9317 98.0446 31.8364 97.9208 31.7716C97.7936 31.7087 97.6533 31.6765 97.5112 31.6776C97.3487 31.6756 97.1882 31.7132 97.0438 31.7873C96.9087 31.8633 96.7977 31.9755 96.7235 32.1112C96.6442 32.2589 96.6044 32.4244 96.6079 32.5918C96.6025 32.761 96.6424 32.9287 96.7235 33.0776C96.7966 33.2289 96.9161 33.3533 97.0648 33.4328L97.0438 33.4015ZM93.9296 33.3701C94.1024 33.4724 94.3011 33.5232 94.5021 33.5164C94.6442 33.5218 94.7858 33.4966 94.9172 33.4425C95.0487 33.3884 95.1668 33.3067 95.2635 33.203L95.5209 33.506C95.4033 33.6476 95.2515 33.7572 95.0797 33.8246C94.8644 33.903 94.6355 33.9379 94.4064 33.9271C94.1774 33.9163 93.9528 33.8602 93.7458 33.7619C93.5272 33.6589 93.3444 33.4934 93.2207 33.2866C93.0987 33.0755 93.0369 32.8352 93.0421 32.5918C93.039 32.3526 93.0987 32.1167 93.2154 31.9075C93.3234 31.7068 93.4876 31.5417 93.6881 31.4321C93.8943 31.3155 94.1283 31.256 94.3655 31.2597C94.5928 31.2587 94.8166 31.3144 95.0167 31.4216C95.2108 31.5261 95.3725 31.6815 95.4841 31.8709C95.6036 32.0754 95.6653 32.3082 95.6627 32.5448L93.562 32.947C93.6319 33.1378 93.7703 33.296 93.9506 33.391L93.9296 33.3701ZM95.2163 32.3254C95.1796 32.1408 95.077 31.9756 94.9274 31.8604C94.7787 31.7419 94.5928 31.679 94.4023 31.6828C94.2456 31.6793 94.0911 31.719 93.9559 31.7978C93.8259 31.8705 93.72 31.9795 93.6513 32.1112C93.5765 32.2603 93.5387 32.4251 93.541 32.5918V32.6388L95.2163 32.3254ZM91.9183 32.8478C91.6524 32.9735 91.3619 33.0395 91.0675 33.041C90.7949 33.059 90.5248 32.9793 90.306 32.8164C90.2133 32.7302 90.1411 32.6245 90.0948 32.507C90.0485 32.3895 90.0291 32.2632 90.0382 32.1373V31.3067H90.5161V32.1269C90.5109 32.2035 90.5239 32.2803 90.554 32.3511C90.5841 32.4219 90.6305 32.4846 90.6894 32.5343C90.8271 32.6357 90.9963 32.6856 91.1673 32.6754C91.4268 32.6692 91.6823 32.6106 91.9183 32.503V31.3067H92.4277V33.9186H91.9498L91.9183 32.8478ZM88.9091 33.506C88.8139 33.6425 88.6832 33.7508 88.531 33.8194C88.3664 33.8947 88.187 33.9322 88.0059 33.9291C87.7003 33.9466 87.4002 33.8433 87.1709 33.6418C87.065 33.5278 86.9839 33.3934 86.9324 33.2469C86.8809 33.1005 86.8602 32.945 86.8715 32.7903V31.3067H87.3494V32.7589C87.3329 32.967 87.3989 33.1733 87.5332 33.3336C87.6016 33.4014 87.684 33.4538 87.7746 33.4872C87.8652 33.5206 87.962 33.5341 88.0584 33.5269C88.1684 33.5328 88.2784 33.5159 88.3815 33.4773C88.4846 33.4386 88.5784 33.379 88.6571 33.3022C88.7337 33.2145 88.7922 33.1126 88.8291 33.0023C88.8661 32.8921 88.8808 32.7756 88.8724 32.6597V31.3067H89.3503V33.9186H88.8986L88.9091 33.506ZM84.6606 34.8903C84.4204 34.8904 84.1815 34.8552 83.9516 34.7858C83.7576 34.7294 83.5783 34.6314 83.4265 34.4985L83.6523 34.1328C83.7869 34.245 83.9421 34.3301 84.1092 34.3836C84.2883 34.4443 84.4766 34.4744 84.6659 34.4724C84.9143 34.4914 85.1606 34.4147 85.3538 34.2582C85.4333 34.1679 85.4937 34.0626 85.5316 33.9487C85.5695 33.8347 85.584 33.7144 85.5744 33.5948V33.4328C85.4613 33.5641 85.3193 33.6678 85.1595 33.7358C84.9633 33.8107 84.7535 33.8439 84.5436 33.8331C84.3338 33.8223 84.1285 33.7678 83.9411 33.6731C83.7404 33.5722 83.5728 33.4163 83.458 33.2239C83.3444 33.0229 83.2847 32.7962 83.2847 32.5657C83.2847 32.3351 83.3444 32.1084 83.458 31.9075C83.5729 31.7164 83.7406 31.5622 83.9411 31.4634C84.1511 31.3525 84.3861 31.2968 84.6238 31.3015C84.8133 31.2994 85.0011 31.3368 85.1753 31.4112C85.3422 31.4793 85.4887 31.589 85.6006 31.7298V31.3276H86.0523V33.5895C86.0675 33.7731 86.0445 33.9578 85.9849 34.1321C85.9253 34.3065 85.8302 34.4667 85.7057 34.603C85.4181 34.8353 85.0504 34.946 84.6816 34.9112L84.6606 34.8903ZM85.3066 31.9127C85.1292 31.7518 84.8951 31.6673 84.6554 31.6776C84.4141 31.6676 84.1784 31.752 83.9989 31.9127C83.9152 31.9906 83.8494 32.0855 83.8059 32.191C83.7624 32.2964 83.7423 32.41 83.7468 32.5239C83.7432 32.6797 83.7832 32.8334 83.8624 32.9679C83.9409 33.0967 84.0535 33.2016 84.188 33.2709C84.3332 33.3427 84.4932 33.38 84.6554 33.38C84.8175 33.38 84.9775 33.3427 85.1227 33.2709C85.2568 33.2029 85.368 33.0976 85.4431 32.9679C85.524 32.8339 85.5659 32.6802 85.5639 32.5239C85.5684 32.4145 85.5497 32.3054 85.509 32.2036C85.4683 32.1019 85.4065 32.0099 85.3276 31.9336L85.3066 31.9127ZM82.1556 33.506C82.0583 33.6427 81.9259 33.751 81.7722 33.8194C81.6078 33.8952 81.4282 33.9327 81.2471 33.9291C80.9433 33.9458 80.6451 33.8425 80.4173 33.6418C80.3106 33.5282 80.2284 33.394 80.176 33.2475C80.1236 33.1011 80.1021 32.9454 80.1127 32.7903V31.3067H80.5906V32.7589C80.5769 32.9667 80.6425 33.1719 80.7744 33.3336C80.8436 33.4003 80.9261 33.452 81.0165 33.4853C81.107 33.5186 81.2034 33.5327 81.2996 33.5269C81.4096 33.5328 81.5196 33.5159 81.6227 33.4773C81.7258 33.4386 81.8196 33.379 81.8983 33.3022C82.0506 33.1236 82.1277 32.8935 82.1136 32.6597V31.3067H82.5915V33.9186H82.1399L82.1556 33.506ZM78.8891 33.7619C78.7039 33.8601 78.4992 33.9166 78.2896 33.9274C78.08 33.9382 77.8705 33.9031 77.676 33.8246C77.5203 33.7573 77.3846 33.6511 77.2821 33.5164V34.8589H76.799V32.6231C76.7953 32.3795 76.8531 32.1388 76.9671 31.9231C77.0806 31.7232 77.2479 31.5586 77.4502 31.4478C77.6708 31.3344 77.9161 31.2769 78.1644 31.2806C78.4094 31.2765 78.6514 31.334 78.8681 31.4478C79.0686 31.5574 79.2328 31.7225 79.3408 31.9231C79.4482 32.1391 79.504 32.3769 79.504 32.6179C79.504 32.8589 79.4482 33.0967 79.3408 33.3127C79.2398 33.5083 79.085 33.6714 78.8944 33.7828L78.8891 33.7619ZM78.9259 32.1216C78.8553 31.9837 78.7458 31.8694 78.6108 31.7925C78.4699 31.7138 78.3103 31.6741 78.1487 31.6776C78.0311 31.6734 77.9139 31.6935 77.8045 31.7367C77.6951 31.7799 77.5959 31.8451 77.5132 31.9284C77.3477 32.109 77.2608 32.3476 77.2716 32.5918C77.2685 32.7602 77.3063 32.9269 77.3819 33.0776C77.4574 33.2274 77.5763 33.3511 77.7233 33.4328C77.8646 33.5083 78.0224 33.5478 78.1828 33.5478C78.3431 33.5478 78.501 33.5083 78.6423 33.4328C78.7748 33.3552 78.8837 33.2433 78.9574 33.1089C79.0322 32.9598 79.07 32.795 79.0677 32.6284C79.0641 32.4576 79.0171 32.2904 78.9311 32.1425L78.9259 32.1216ZM75.3181 33.6888C75.0415 33.8453 74.7276 33.9247 74.4095 33.9186C74.1141 33.9211 73.8223 33.853 73.5588 33.7201C73.3109 33.5882 73.0994 33.3977 72.9428 33.1655C72.7863 32.9332 72.6894 32.6662 72.6608 32.3881H72.0201V33.9186H71.5317V30.4657H72.0201V31.9492H72.666C72.6966 31.6703 72.7961 31.4032 72.9555 31.1718C73.1149 30.9403 73.3294 30.7515 73.5798 30.6224C73.8521 30.4892 74.1526 30.423 74.456 30.4294C74.7594 30.4358 75.0568 30.5145 75.3233 30.6589C75.5886 30.8069 75.8069 31.0259 75.9535 31.291C76.1052 31.5684 76.1846 31.8791 76.1846 32.1948C76.1846 32.5105 76.1052 32.8212 75.9535 33.0985C75.8069 33.3636 75.5886 33.5826 75.3233 33.7306L75.3181 33.6888ZM75.5176 31.4739C75.4125 31.2764 75.2543 31.1118 75.0607 30.9985C74.8623 30.8866 74.6376 30.8289 74.4095 30.8313C74.1848 30.8295 73.9637 30.8872 73.7688 30.9985C73.5752 31.1118 73.4171 31.2764 73.312 31.4739C73.2005 31.6828 73.1444 31.9165 73.1492 32.153C73.1437 32.3895 73.1998 32.6234 73.312 32.8321C73.4171 33.0296 73.5752 33.1941 73.7688 33.3075C73.9637 33.4188 74.1848 33.4765 74.4095 33.4746C74.6376 33.4771 74.8623 33.4194 75.0607 33.3075C75.2543 33.1941 75.4125 33.0296 75.5176 32.8321C75.6314 32.6238 75.6892 32.3899 75.6857 32.153C75.6834 31.9306 75.6276 31.7121 75.5229 31.5157L75.5176 31.4739Z" fill="white"/>
</svg>
