<svg width="167" height="35" viewBox="0 0 167 35" fill="none" xmlns="http://www.w3.org/2000/svg">
<path d="M44.1132 17.5C44.1075 21.7667 42.5354 25.8843 39.6924 29.0792C36.8495 32.274 32.9314 34.326 28.6745 34.8496C24.4177 35.3731 20.1151 34.3321 16.5755 31.9222C13.036 29.5123 10.503 25.8995 9.45283 21.7627V35H0V0H9.45283V13.2373C10.3551 9.67219 12.3622 6.47984 15.1898 4.1125C18.0174 1.74515 21.5221 0.322825 25.2076 0.0470149V9.51269C23.3009 9.82045 21.5666 10.7931 20.3149 12.2565C19.0632 13.7199 18.3758 15.5786 18.3758 17.5C18.3758 19.4214 19.0632 21.2801 20.3149 22.7435C21.5666 24.2069 23.3009 25.1796 25.2076 25.4873C25.3134 25.5084 25.4204 25.5241 25.5279 25.5343C25.717 25.5343 25.9113 25.5761 26.1056 25.5866H26.5204C28.6775 25.5866 30.7463 24.7349 32.2725 23.2187C33.7988 21.7025 34.6576 19.6457 34.6604 17.5C34.6604 17.4112 34.6604 17.3276 34.6604 17.2388H44.1132C44.1132 17.3224 44.1132 17.4112 44.1132 17.5Z" fill="#101F30"/>
<path d="M60.3931 17.5V35H50.9402V17.5C50.975 15.3525 50.1508 13.2793 48.6489 11.7363C47.147 10.1933 45.0904 9.30702 42.9316 9.27239C40.7727 9.23775 38.6885 10.0576 37.1373 11.5516C35.5862 13.0456 34.6952 15.0913 34.6603 17.2388C34.6603 17.3276 34.6603 17.4112 34.6603 17.5C34.6603 19.6475 33.8028 21.707 32.2762 23.2255C30.7497 24.7439 28.6793 25.597 26.5204 25.597C26.0804 25.5977 25.6412 25.561 25.2075 25.4873V17.5C25.2075 12.8587 27.061 8.40752 30.3603 5.12563C33.6596 1.84374 38.1344 0 42.8003 0C47.4662 0 51.941 1.84374 55.2403 5.12563C58.5395 8.40752 60.3931 12.8587 60.3931 17.5Z" fill="#17AADF"/>
<path fill-rule="evenodd" clip-rule="evenodd" d="M164.416 23.9097V16.5962H167V23.9097H164.416ZM160.099 24.1239C157.649 24.1239 156.423 23.0791 156.423 20.9895V16.591H158.997V18.9104C159.233 18.7652 159.492 18.6609 159.763 18.6022C160.128 18.5158 160.502 18.4755 160.877 18.4821C161.648 18.4367 162.408 18.6788 163.009 19.1612C163.28 19.4208 163.49 19.7365 163.624 20.0859C163.758 20.4353 163.814 20.8098 163.786 21.1828C163.812 21.6017 163.734 22.0204 163.56 22.4027C163.386 22.785 163.121 23.1194 162.788 23.3768C161.997 23.9081 161.053 24.1702 160.099 24.1239ZM160.903 20.4671C160.798 20.3689 160.674 20.2932 160.539 20.2446C160.403 20.1961 160.259 20.1758 160.115 20.1851C159.89 20.1787 159.667 20.2252 159.464 20.3209C159.284 20.3995 159.129 20.5238 159.012 20.6813V21.2507C158.995 21.5519 159.092 21.8486 159.285 22.0813C159.392 22.1867 159.519 22.2682 159.659 22.3205C159.8 22.3728 159.95 22.3945 160.099 22.3843C160.248 22.3951 160.397 22.3731 160.536 22.3198C160.675 22.2665 160.8 22.1833 160.903 22.0761C161.093 21.844 161.191 21.55 161.176 21.2507C161.187 21.1061 161.169 20.9607 161.122 20.8234C161.075 20.686 161 20.5595 160.903 20.4515V20.4671ZM153.341 23.6015C152.763 23.9194 152.11 24.0798 151.45 24.0664C151.083 24.0868 150.716 24.0288 150.374 23.8963C150.032 23.7639 149.722 23.56 149.465 23.2985V26.5634H146.876V20.2948C146.863 19.5942 147.045 18.9038 147.401 18.2992C147.75 17.7203 148.261 17.2554 148.872 16.9619C149.564 16.6358 150.322 16.4749 151.088 16.4918C151.815 16.4751 152.535 16.6328 153.188 16.9515C153.77 17.2412 154.251 17.6979 154.57 18.2627C154.901 18.879 155.068 19.5698 155.053 20.2686C155.067 20.9588 154.912 21.642 154.601 22.2589C154.318 22.8058 153.882 23.2594 153.346 23.5649L153.341 23.6015ZM152.086 19.0254C151.946 18.8672 151.773 18.742 151.578 18.6588C151.384 18.5757 151.173 18.5367 150.962 18.5448C150.751 18.5364 150.541 18.5752 150.347 18.6584C150.154 18.7416 149.981 18.867 149.843 19.0254C149.572 19.3916 149.426 19.8346 149.426 20.2895C149.426 20.7445 149.572 21.1874 149.843 21.5537C149.983 21.7109 150.157 21.8352 150.351 21.9174C150.546 21.9996 150.756 22.0378 150.967 22.0291C151.178 22.0357 151.388 21.996 151.583 21.913C151.777 21.83 151.95 21.7055 152.091 21.5485C152.367 21.1854 152.517 20.7424 152.517 20.2869C152.517 19.8314 152.367 19.3884 152.091 19.0254H152.086ZM142.108 22.1074C142.419 22.1151 142.728 22.0655 143.021 21.9612C143.309 21.8458 143.573 21.6813 143.804 21.4754L145.153 22.8754C144.453 23.6694 143.403 24.0664 142.003 24.0664C141.217 24.0828 140.438 23.9164 139.729 23.5806C139.094 23.2894 138.556 22.8243 138.178 22.2397C137.799 21.6552 137.596 20.9755 137.592 20.2803C137.588 19.5851 137.784 18.9032 138.156 18.3145C138.528 17.7259 139.06 17.2548 139.692 16.9567C140.341 16.6248 141.063 16.4579 141.792 16.4709C142.474 16.4625 143.149 16.6127 143.762 16.9097C144.348 17.1946 144.841 17.6382 145.185 18.1895C145.547 18.7954 145.729 19.4909 145.71 20.1955L140.459 21.1933C140.614 21.4874 140.855 21.7283 141.15 21.8848C141.445 22.0412 141.78 22.1061 142.113 22.0709L142.108 22.1074ZM143.221 19.3388C143.133 19.042 142.948 18.7827 142.696 18.6022C142.437 18.4024 142.12 18.2907 141.792 18.2836C141.593 18.2754 141.394 18.3073 141.207 18.3773C141.021 18.4473 140.85 18.554 140.705 18.691C140.404 19.0115 140.233 19.4326 140.228 19.8716L143.221 19.3388ZM143.179 15.7604C143.038 15.7661 142.898 15.7436 142.766 15.6942C142.635 15.6449 142.514 15.5697 142.412 15.4731C142.31 15.3745 142.23 15.2556 142.178 15.1242C142.125 14.9927 142.101 14.8517 142.108 14.7104C142.103 14.5686 142.128 14.4273 142.18 14.2953C142.233 14.1633 142.312 14.0432 142.412 13.9425C142.622 13.7513 142.897 13.6452 143.182 13.6452C143.466 13.6452 143.741 13.7513 143.951 13.9425C144.051 14.0432 144.13 14.1633 144.183 14.2953C144.235 14.4273 144.26 14.5686 144.255 14.7104C144.262 14.8517 144.238 14.9927 144.185 15.1242C144.133 15.2556 144.053 15.3745 143.951 15.4731C143.846 15.5631 143.724 15.6316 143.593 15.6747C143.461 15.7177 143.322 15.7344 143.184 15.7239L143.179 15.7604ZM140.296 15.7604C140.155 15.7661 140.015 15.7436 139.883 15.6942C139.751 15.6449 139.631 15.5697 139.529 15.4731C139.426 15.3748 139.346 15.2561 139.292 15.1246C139.239 14.9932 139.214 14.8521 139.219 14.7104C139.219 14.4264 139.333 14.154 139.535 13.9532C139.736 13.7524 140.01 13.6395 140.296 13.6395C140.581 13.6395 140.855 13.7524 141.057 13.9532C141.259 14.154 141.372 14.4264 141.372 14.7104C141.378 14.8521 141.353 14.9932 141.299 15.1246C141.246 15.2561 141.165 15.3748 141.063 15.4731C140.852 15.6536 140.578 15.7438 140.301 15.7239L140.296 15.7604ZM133.611 21.3448H130.985V23.9097H128.411V16.5962H130.985V19.3283H133.611V16.591H136.194V23.9045H133.611V21.3448ZM123.937 20.1433C123.971 19.7416 123.867 19.3403 123.643 19.0045C123.544 18.8847 123.419 18.7897 123.277 18.7271C123.134 18.6645 122.979 18.636 122.824 18.644C122.647 18.6371 122.471 18.6696 122.308 18.7392C122.145 18.8088 122 18.9137 121.884 19.0462C121.621 19.3996 121.494 19.8353 121.527 20.2739V23.9306H118.943V20.1433C118.943 19.1403 118.57 18.644 117.83 18.644C117.65 18.6366 117.472 18.6688 117.306 18.7383C117.141 18.8079 116.993 18.9131 116.874 19.0462C116.612 19.4003 116.488 19.8359 116.522 20.2739V23.9306H113.959V16.6171H116.422V17.3851C116.683 17.0927 117.009 16.864 117.373 16.7164C117.765 16.5676 118.182 16.4931 118.602 16.497C119.081 16.4887 119.556 16.585 119.993 16.7791C120.399 16.9682 120.743 17.2669 120.986 17.641C121.277 17.2713 121.656 16.9788 122.089 16.7895C122.548 16.5921 123.043 16.4924 123.543 16.497C123.941 16.477 124.339 16.5386 124.712 16.6778C125.085 16.8171 125.426 17.0312 125.712 17.3067C126.003 17.6394 126.225 18.0266 126.364 18.4454C126.502 18.8643 126.556 19.3066 126.521 19.7462V23.9254H123.937V20.1433ZM124.268 10.2179C123.69 10.5351 123.038 10.6954 122.377 10.6828C122.011 10.7045 121.645 10.6482 121.303 10.5176C120.96 10.3869 120.65 10.185 120.392 9.92535V13.1903H117.803V6.92162C117.791 6.21942 117.972 5.52727 118.328 4.92088C118.677 4.34195 119.188 3.87709 119.799 3.58356C120.491 3.25748 121.25 3.0965 122.015 3.11342C122.742 3.09676 123.463 3.25443 124.116 3.57312C124.707 3.86331 125.194 4.3263 125.513 4.89998C125.845 5.51584 126.012 6.20699 125.996 6.90595C125.997 7.59326 125.831 8.27067 125.513 8.88058C125.238 9.43789 124.805 9.90287 124.268 10.2179ZM123.008 5.64177C122.864 5.49032 122.69 5.36966 122.498 5.2872C122.306 5.20474 122.098 5.1622 121.889 5.1622C121.68 5.1622 121.472 5.20474 121.28 5.2872C121.088 5.36966 120.914 5.49032 120.77 5.64177C120.479 5.99739 120.329 6.44749 120.35 6.90595C120.326 7.36551 120.474 7.81763 120.765 8.17535C120.912 8.32303 121.086 8.44029 121.279 8.52032C121.471 8.60035 121.678 8.64156 121.886 8.64156C122.095 8.64156 122.302 8.60035 122.494 8.52032C122.686 8.44029 122.861 8.32303 123.008 8.17535C123.307 7.82565 123.461 7.37531 123.438 6.9164C123.464 6.45239 123.31 5.99628 123.008 5.64177ZM113.03 8.72386C113.342 8.73191 113.654 8.68232 113.949 8.57759C114.236 8.46217 114.501 8.29776 114.731 8.09177L116.081 9.497C115.381 10.2875 114.33 10.6828 112.93 10.6828C112.144 10.6992 111.366 10.5328 110.656 10.197C110.03 9.90358 109.501 9.44056 109.128 8.86113C108.755 8.2817 108.554 7.60936 108.548 6.92138C108.542 6.2334 108.731 5.55768 109.094 4.97187C109.456 4.38605 109.978 3.91391 110.598 3.60968C111.227 3.29843 111.918 3.13253 112.62 3.12439C113.322 3.11625 114.017 3.26607 114.652 3.56267C115.237 3.84792 115.728 4.29157 116.07 4.84252C116.435 5.44737 116.617 6.14361 116.595 6.84849L111.344 7.84625C111.501 8.14776 111.747 8.3938 112.05 8.55085C112.353 8.7079 112.697 8.76832 113.035 8.72386H113.03ZM114.148 5.96043C114.065 5.66158 113.879 5.40108 113.623 5.22386C113.358 5.03655 113.039 4.93943 112.715 4.947C112.515 4.9386 112.315 4.97087 112.128 5.04183C111.941 5.11279 111.771 5.22095 111.627 5.35968C111.325 5.67961 111.154 6.10103 111.15 6.54028L114.148 5.96043ZM110.53 16.9306C111.113 17.2187 111.595 17.6758 111.911 18.2418C112.245 18.8571 112.412 19.5486 112.394 20.2477C112.411 20.9374 112.257 21.6207 111.948 22.238C111.666 22.794 111.226 23.2554 110.682 23.5649C110.104 23.8821 109.452 24.0425 108.792 24.0298C108.425 24.0502 108.058 23.9922 107.715 23.8598C107.373 23.7273 107.063 23.5235 106.807 23.2619V26.5268H104.217V20.2582C104.205 19.5577 104.387 18.8672 104.743 18.2627C105.09 17.6826 105.601 17.2173 106.213 16.9254C106.905 16.5987 107.664 16.4377 108.429 16.4552C109.16 16.4417 109.882 16.6049 110.535 16.9306H110.53ZM108.303 18.4977C108.092 18.489 107.882 18.5276 107.689 18.6109C107.495 18.6941 107.323 18.8197 107.185 18.9783C106.913 19.3446 106.767 19.7876 106.767 20.2425C106.767 20.6974 106.913 21.1404 107.185 21.5067C107.329 21.6576 107.503 21.7778 107.696 21.8599C107.889 21.942 108.096 21.9843 108.306 21.9843C108.515 21.9843 108.723 21.942 108.916 21.8599C109.108 21.7778 109.282 21.6576 109.427 21.5067C109.704 21.1436 109.853 20.7006 109.853 20.2451C109.853 19.7897 109.704 19.3467 109.427 18.9836C109.288 18.8262 109.116 18.7017 108.922 18.6195C108.728 18.5372 108.519 18.4992 108.308 18.5082L108.303 18.4977ZM107.657 8.35819C107.658 8.59223 107.612 8.82411 107.522 9.04028C107.432 9.25644 107.299 9.45256 107.132 9.61715C106.748 10.0109 106.266 10.2973 105.735 10.4477C105.099 10.6417 104.436 10.7351 103.771 10.7246C102.622 10.7456 101.482 10.5304 100.421 10.0925L101.088 8.35819C101.913 8.69032 102.797 8.85548 103.687 8.84401C104.02 8.85885 104.352 8.79997 104.659 8.67162C104.766 8.632 104.858 8.56063 104.923 8.46719C104.987 8.37376 105.022 8.26276 105.021 8.14924C105.027 8.06441 105.011 7.97944 104.973 7.90317C104.935 7.82691 104.877 7.76215 104.806 7.71565C104.599 7.61236 104.369 7.56549 104.139 7.57983H102.563V6.09625H103.923C104.527 6.09625 104.832 5.90819 104.832 5.54252C104.832 5.17685 104.428 4.95744 103.624 4.95744C102.82 4.97842 102.027 5.14298 101.282 5.44327L100.667 3.75595C101.664 3.33362 102.735 3.10999 103.818 3.09774C104.71 3.05873 105.597 3.23811 106.402 3.62013C106.704 3.74979 106.962 3.964 107.144 4.23668C107.325 4.50937 107.424 4.82875 107.426 5.15595C107.426 5.48613 107.322 5.80791 107.127 6.07536C106.918 6.37963 106.634 6.62591 106.302 6.79103C106.683 6.89828 107.025 7.11013 107.29 7.40222C107.522 7.66741 107.653 8.00625 107.657 8.35819ZM102.474 16.5858V23.8992H99.99V23.1679C99.7173 23.4665 99.3797 23.6993 99.003 23.8487C98.6263 23.998 98.2203 24.06 97.8158 24.0298C97.1746 24.0365 96.5427 23.8762 95.983 23.5649C95.4335 23.2491 94.9827 22.788 94.6806 22.2328C94.3631 21.6151 94.1975 20.9311 94.1975 20.2373C94.1975 19.5435 94.3631 18.8595 94.6806 18.2418C94.982 17.6914 95.4334 17.2369 95.983 16.9306C96.5432 16.6211 97.1751 16.4626 97.8158 16.4709C98.1927 16.4523 98.5694 16.5109 98.9226 16.6429C99.2758 16.775 99.598 16.9778 99.8692 17.2388V16.591L102.474 16.5858ZM99.4963 18.9627C99.35 18.8166 99.1761 18.7006 98.9845 18.6215C98.793 18.5424 98.5877 18.5017 98.3804 18.5017C98.173 18.5017 97.9677 18.5424 97.7762 18.6215C97.5847 18.7006 97.4108 18.8166 97.2644 18.9627C96.9574 19.3126 96.8009 19.7684 96.8285 20.2321C96.8012 20.7004 96.9574 21.161 97.2644 21.5171C97.4108 21.6632 97.5847 21.7792 97.7762 21.8583C97.9677 21.9374 98.173 21.9781 98.3804 21.9781C98.5877 21.9781 98.793 21.9374 98.9845 21.8583C99.1761 21.7792 99.35 21.6632 99.4963 21.5171C99.8033 21.161 99.9596 20.7004 99.9322 20.2321C99.9527 19.7673 99.7886 19.3132 99.4753 18.9679L99.4963 18.9627ZM96.6762 9.77386C96.4007 10.0725 96.0591 10.3032 95.6784 10.4477C95.2933 10.6032 94.881 10.6813 94.4653 10.6776C94.0484 10.6982 93.6316 10.6348 93.24 10.4911C92.8483 10.3475 92.4899 10.1266 92.1861 9.84177C91.8799 9.49941 91.6466 9.09884 91.5004 8.66428C91.3542 8.22971 91.2981 7.77017 91.3354 7.31341V3.24401H93.9244V6.90073C93.8898 7.32442 93.9989 7.74743 94.2343 8.10222C94.3471 8.23103 94.4882 8.33238 94.6466 8.39848C94.805 8.46459 94.9765 8.4937 95.148 8.48356C95.3357 8.4889 95.5223 8.45332 95.6946 8.37932C95.867 8.30532 96.021 8.19469 96.1458 8.05521C96.4354 7.68579 96.5742 7.22125 96.5345 6.75446V3.24401H99.1182V10.5574H96.6552L96.6762 9.77386ZM95.148 2.54401C94.46 2.59971 93.775 2.40478 93.2207 1.9955C93.001 1.77616 92.8311 1.51254 92.7224 1.22239C92.6137 0.932242 92.5687 0.622297 92.5905 0.313416H94.2605C94.2455 0.575391 94.3236 0.834283 94.4811 1.04476C94.5656 1.12917 94.6677 1.19401 94.7803 1.23464C94.8928 1.27528 95.013 1.29071 95.1323 1.27983C95.2555 1.29004 95.3794 1.27439 95.4961 1.23389C95.6128 1.1934 95.7197 1.12896 95.8097 1.04476C95.9734 0.83739 96.0522 0.576147 96.0303 0.313416H97.7318C97.7572 0.622604 97.7139 0.933555 97.605 1.22424C97.496 1.51493 97.3242 1.77823 97.1016 1.9955C96.5369 2.40402 95.8441 2.59854 95.148 2.54401ZM87.0396 9.85744C86.7659 10.1542 86.4279 10.385 86.0512 10.5326C85.6745 10.6801 85.2691 10.7404 84.8655 10.7089C84.2242 10.7156 83.5924 10.5554 83.0327 10.244C82.4772 9.92171 82.0255 9.44881 81.7303 8.88058C81.3976 8.26661 81.2311 7.57714 81.2471 6.87983C81.2297 6.18571 81.3964 5.49927 81.7303 4.88953C82.0299 4.33658 82.4816 3.87996 83.0327 3.57312C83.5949 3.27087 84.2266 3.11962 84.8655 3.13431C85.2417 3.11309 85.6183 3.16942 85.9717 3.29977C86.325 3.43011 86.6474 3.63166 86.9188 3.89177V3.24401H89.5026V10.5574H87.0396V9.85744ZM86.5145 5.647C86.3681 5.5009 86.1942 5.38497 86.0027 5.30587C85.8112 5.22678 85.6058 5.18606 85.3985 5.18606C85.1911 5.18606 84.9858 5.22678 84.7943 5.30587C84.6028 5.38497 84.4289 5.5009 84.2825 5.647C83.9775 5.99803 83.8212 6.45309 83.8467 6.9164C83.8201 7.3862 83.9762 7.84816 84.2825 8.2067C84.4289 8.3528 84.6028 8.46872 84.7943 8.54782C84.9858 8.62692 85.1911 8.66763 85.3985 8.66763C85.6058 8.66763 85.8112 8.62692 86.0027 8.54782C86.1942 8.46872 86.3681 8.3528 86.5145 8.2067C86.8208 7.84816 86.9769 7.3862 86.9503 6.9164C86.9856 6.44568 86.8328 5.98013 86.525 5.62088L86.5145 5.647ZM77.9019 10.5888L75.7382 6.96864H74.5146V10.5888H71.8416V1.11267H74.5251V4.76938H75.817L78.0909 1.11267H80.9215L77.9386 5.67312L80.9478 10.5627L77.9019 10.5888ZM74.147 20.2895C74.1124 20.7132 74.2214 21.1362 74.4568 21.491C74.5702 21.6189 74.7115 21.7192 74.8699 21.7844C75.0283 21.8496 75.1996 21.8779 75.3706 21.8671C75.5579 21.8735 75.7443 21.8389 75.9167 21.7658C76.0891 21.6927 76.2433 21.5828 76.3684 21.444C76.6579 21.0725 76.7966 20.6064 76.757 20.138V16.591H79.3461V23.9045H76.8831V23.1209C76.612 23.4175 76.276 23.6481 75.901 23.7948C75.5152 23.9482 75.1034 24.0262 74.6879 24.0246C74.2711 24.044 73.8547 23.98 73.4632 23.8364C73.0717 23.6929 72.7131 23.4726 72.4087 23.1888C72.1054 22.8479 71.8742 22.4497 71.729 22.018C71.5837 21.5863 71.5273 21.1299 71.5632 20.6761V16.591H74.147V20.2895ZM92.6483 23.9462H90.0803V18.6283H87.6015V23.9097H85.0335V16.5962H92.6483V23.9462Z" fill="#101F30"/>
<path fill-rule="evenodd" clip-rule="evenodd" d="M135.097 33.9239V33.0933H134.278L133.7 33.9239H133.175L133.815 33.0306C133.636 32.983 133.476 32.8807 133.359 32.7381C133.247 32.5872 133.189 32.4031 133.196 32.2157C133.188 32.0852 133.212 31.9548 133.266 31.8357C133.32 31.7165 133.402 31.6121 133.506 31.5314C133.755 31.3614 134.054 31.2788 134.356 31.2963H135.512V33.9082L135.097 33.9239ZM135.097 31.7194H134.388C133.931 31.7194 133.7 31.8918 133.7 32.2418C133.695 32.3149 133.708 32.3881 133.737 32.4554C133.766 32.5226 133.811 32.5819 133.868 32.6284C134.024 32.728 134.209 32.7722 134.393 32.7538H135.123L135.097 31.7194ZM132.03 33.5269C131.935 33.6634 131.804 33.7718 131.652 33.8403C131.487 33.9156 131.308 33.9531 131.127 33.95C130.821 33.9675 130.521 33.8642 130.292 33.6627C130.186 33.5487 130.105 33.4143 130.053 33.2679C130.002 33.1214 129.981 32.966 129.992 32.8112V31.3067H130.465V32.759C130.45 32.9678 130.518 33.1741 130.654 33.3336C130.722 33.4015 130.805 33.4539 130.895 33.4872C130.986 33.5206 131.083 33.5341 131.179 33.5269C131.289 33.5329 131.399 33.516 131.502 33.4773C131.605 33.4386 131.699 33.379 131.778 33.3023C131.93 33.1237 132.007 32.8935 131.993 32.6597V31.3067H132.471V33.9187H132.019L132.03 33.5269ZM128.664 32.8269H127.162V33.9239H126.684V31.312H127.162V32.4246H128.664V31.3067H129.141V33.9187H128.664V32.8269ZM125.308 33.506C125.204 33.6497 125.065 33.7648 124.903 33.8403C124.738 33.9136 124.559 33.951 124.378 33.95C124.138 33.955 123.901 33.8973 123.69 33.7829C123.491 33.6737 123.327 33.5107 123.218 33.3127C123.104 33.0976 123.045 32.8583 123.045 32.6153C123.045 32.3723 123.104 32.133 123.218 31.9179C123.33 31.7222 123.494 31.5599 123.69 31.4478C123.902 31.3357 124.139 31.2782 124.378 31.2806C124.559 31.2791 124.738 31.3165 124.903 31.3903C125.061 31.4578 125.197 31.5661 125.297 31.7038V31.3067H125.775V33.9187H125.318L125.308 33.506ZM125.182 32.1321C125.108 31.9965 124.997 31.8843 124.861 31.8082C124.721 31.7363 124.565 31.6988 124.407 31.6988C124.249 31.6988 124.093 31.7363 123.953 31.8082C123.819 31.8857 123.708 31.9976 123.633 32.1321C123.556 32.2819 123.517 32.4474 123.517 32.6153C123.517 32.7832 123.556 32.9487 123.633 33.0985C123.71 33.2319 123.82 33.3433 123.953 33.4224C124.092 33.4978 124.249 33.5374 124.407 33.5374C124.566 33.5374 124.722 33.4978 124.861 33.4224C124.995 33.3449 125.106 33.233 125.182 33.0985C125.254 32.9477 125.292 32.7826 125.292 32.6153C125.292 32.4481 125.254 32.2829 125.182 32.1321ZM121.889 31.7194H120.398V33.9239H119.92V31.312H122.362V33.9239H121.889V31.7194ZM118.56 32.012L117.572 33.6261H117.362L116.391 32.0067V33.9239H115.95V31.312H116.443L117.493 33.0776L118.544 31.312H118.99V33.9239H118.56V32.012ZM114.595 33.7776C114.377 33.8907 114.136 33.9497 113.891 33.9497C113.646 33.9497 113.404 33.8907 113.187 33.7776C112.982 33.6673 112.811 33.5028 112.694 33.3023C112.576 33.0917 112.516 32.8538 112.52 32.6127C112.516 32.3733 112.576 32.1371 112.694 31.9284C112.811 31.7278 112.982 31.5634 113.187 31.453C113.404 31.34 113.646 31.2809 113.891 31.2809C114.136 31.2809 114.377 31.34 114.595 31.453C114.8 31.5621 114.969 31.727 115.083 31.9284C115.205 32.1356 115.267 32.3725 115.262 32.6127C115.267 32.8545 115.205 33.0931 115.083 33.3023C114.972 33.5022 114.806 33.6669 114.605 33.7776H114.595ZM114.663 32.1321C114.592 31.9956 114.483 31.8829 114.348 31.8082C114.207 31.7336 114.05 31.6958 113.891 31.6985C113.733 31.6958 113.578 31.7335 113.439 31.8082C113.304 31.8843 113.193 31.9965 113.119 32.1321C113.043 32.2819 113.003 32.4474 113.003 32.6153C113.003 32.7832 113.043 32.9487 113.119 33.0985C113.195 33.2346 113.308 33.3474 113.444 33.4247C113.58 33.502 113.734 33.541 113.891 33.5373C114.051 33.5409 114.209 33.5012 114.348 33.4224C114.481 33.3461 114.591 33.2338 114.663 33.0985C114.739 32.9487 114.779 32.7832 114.779 32.6153C114.779 32.4474 114.739 32.2819 114.663 32.1321ZM111.79 33.9239L110.903 32.8164H110.378V33.9239H109.9V31.312H110.378V32.4194H110.934L111.79 31.312H112.315L111.318 32.5709L112.368 33.9291L111.79 33.9239ZM107.179 33.0933H106.36L105.782 33.9239H105.257L105.898 33.0306C105.719 32.983 105.559 32.8807 105.441 32.7381C105.329 32.5872 105.272 32.4031 105.278 32.2157C105.271 32.0852 105.295 31.9548 105.349 31.8357C105.403 31.7165 105.485 31.6121 105.588 31.5314C105.838 31.3614 106.137 31.2788 106.439 31.2963H107.594V33.9082H107.164L107.179 33.0933ZM107.179 31.7194H106.47C106.014 31.7194 105.782 31.8918 105.782 32.2418C105.778 32.3149 105.79 32.3881 105.819 32.4554C105.849 32.5226 105.894 32.5819 105.951 32.6284C106.099 32.7224 106.274 32.7663 106.449 32.7538H107.179V31.7194ZM104.123 33.506C104.019 33.6497 103.88 33.7648 103.719 33.8403C103.553 33.9132 103.374 33.9506 103.193 33.95C102.953 33.9555 102.716 33.8978 102.506 33.7829C102.306 33.6737 102.143 33.5107 102.033 33.3127C101.919 33.0976 101.86 32.8583 101.86 32.6153C101.86 32.3723 101.919 32.133 102.033 31.9179C102.146 31.7222 102.309 31.5599 102.506 31.4478C102.717 31.3351 102.954 31.2776 103.193 31.2806C103.375 31.2777 103.554 31.3152 103.719 31.3903C103.878 31.4563 104.016 31.5648 104.118 31.7038V31.3067H104.596V33.9187H104.139L104.123 33.506ZM103.981 32.1321C103.911 31.9956 103.801 31.8829 103.666 31.8082C103.525 31.7342 103.368 31.6965 103.209 31.6985C103.052 31.6958 102.896 31.7335 102.758 31.8082C102.622 31.8843 102.511 31.9965 102.437 32.1321C102.361 32.2819 102.321 32.4474 102.321 32.6153C102.321 32.7832 102.361 32.9487 102.437 33.0985C102.514 33.2346 102.626 33.3474 102.762 33.4247C102.898 33.502 103.053 33.541 103.209 33.5373C103.369 33.5402 103.527 33.5005 103.666 33.4224C103.8 33.3461 103.909 33.2338 103.981 33.0985C104.057 32.9487 104.097 32.7832 104.097 32.6153C104.097 32.4474 104.057 32.2819 103.981 32.1321ZM101.119 33.9239L100.232 32.8164H99.7064V33.9239H99.2548V31.312H99.7327V32.4194H100.289L101.145 31.312H101.671L100.673 32.5709L101.723 33.9291L101.119 33.9239ZM97.0439 33.4015C97.1869 33.4798 97.348 33.5194 97.5113 33.5164C97.6533 33.5176 97.7937 33.4854 97.9209 33.4224C98.046 33.3572 98.1512 33.2598 98.2255 33.1403L98.5878 33.3702C98.4883 33.5483 98.3386 33.6935 98.1572 33.7881C97.9577 33.8843 97.7382 33.9326 97.5165 33.9291C97.2658 33.9336 97.0182 33.8743 96.7971 33.7567C96.5906 33.648 96.4194 33.4831 96.3034 33.2814C96.1813 33.0722 96.1196 32.8336 96.1248 32.5918C96.1194 32.3516 96.1813 32.1147 96.3034 31.9075C96.4194 31.7057 96.5906 31.5409 96.7971 31.4321C97.0182 31.3146 97.2658 31.2552 97.5165 31.2597C97.7389 31.2554 97.959 31.3057 98.1572 31.406C98.3398 31.4965 98.4901 31.6406 98.5878 31.8187L98.2255 32.0485C98.1495 31.9317 98.0446 31.8364 97.9209 31.7717C97.7937 31.7087 97.6533 31.6765 97.5113 31.6776C97.3488 31.6756 97.1883 31.7133 97.0439 31.7873C96.9087 31.8634 96.7977 31.9756 96.7235 32.1112C96.6442 32.2589 96.6045 32.4244 96.608 32.5918C96.6026 32.7611 96.6424 32.9287 96.7235 33.0776C96.7967 33.229 96.9162 33.3533 97.0649 33.4329L97.0439 33.4015ZM93.9297 33.3702C94.1025 33.4724 94.3012 33.5232 94.5021 33.5164C94.6442 33.5218 94.7859 33.4966 94.9173 33.4425C95.0487 33.3884 95.1669 33.3067 95.2636 33.203L95.5209 33.506C95.4033 33.6476 95.2515 33.7572 95.0798 33.8246C94.8644 33.903 94.6355 33.9379 94.4065 33.9271C94.1774 33.9164 93.9528 33.8602 93.7459 33.762C93.5273 33.6589 93.3444 33.4934 93.2207 33.2866C93.0987 33.0755 93.037 32.8353 93.0422 32.5918C93.0391 32.3526 93.0988 32.1167 93.2155 31.9075C93.3234 31.7069 93.4876 31.5417 93.6881 31.4321C93.8944 31.3155 94.1283 31.256 94.3656 31.2597C94.5928 31.2587 94.8167 31.3144 95.0168 31.4217C95.2109 31.5261 95.3726 31.6815 95.4842 31.8709C95.6037 32.0754 95.6654 32.3083 95.6627 32.5448L93.5621 32.947C93.6319 33.1378 93.7704 33.296 93.9507 33.3911L93.9297 33.3702ZM95.2163 32.3254C95.1797 32.1408 95.0771 31.9756 94.9275 31.8605C94.7787 31.7419 94.5929 31.6791 94.4023 31.6829C94.2457 31.6793 94.0912 31.7191 93.956 31.7978C93.8259 31.8706 93.7201 31.9795 93.6514 32.1112C93.5766 32.2604 93.5388 32.4252 93.5411 32.5918V32.6388L95.2163 32.3254ZM91.9183 32.8478C91.6524 32.9735 91.362 33.0395 91.0676 33.0411C90.7949 33.059 90.5249 32.9793 90.3061 32.8164C90.2134 32.7303 90.1412 32.6246 90.0949 32.5071C90.0485 32.3896 90.0292 32.2632 90.0383 32.1373V31.3067H90.5162V32.1269C90.511 32.2036 90.524 32.2804 90.5541 32.3511C90.5842 32.4219 90.6306 32.4847 90.6895 32.5343C90.8272 32.6357 90.9964 32.6856 91.1674 32.6754C91.4269 32.6692 91.6824 32.6106 91.9183 32.503V31.3067H92.4277V33.9187H91.9498L91.9183 32.8478ZM88.9092 33.506C88.8139 33.6425 88.6833 33.7509 88.5311 33.8194C88.3665 33.8947 88.187 33.9322 88.0059 33.9291C87.7004 33.9466 87.4003 33.8433 87.1709 33.6418C87.0651 33.5278 86.9839 33.3934 86.9324 33.247C86.8809 33.1005 86.8602 32.9451 86.8716 32.7903V31.3067H87.3495V32.759C87.333 32.967 87.3989 33.1733 87.5333 33.3336C87.6017 33.4015 87.684 33.4539 87.7747 33.4872C87.8653 33.5206 87.9621 33.5341 88.0584 33.5269C88.1684 33.5329 88.2785 33.516 88.3816 33.4773C88.4846 33.4386 88.5785 33.379 88.6571 33.3023C88.7338 33.2145 88.7922 33.1126 88.8292 33.0023C88.8661 32.8921 88.8808 32.7756 88.8724 32.6597V31.3067H89.3503V33.9187H88.8987L88.9092 33.506ZM84.6607 34.8903C84.4205 34.8904 84.1816 34.8552 83.9517 34.7858C83.7576 34.7295 83.5783 34.6314 83.4265 34.4985L83.6524 34.1329C83.787 34.245 83.9421 34.3301 84.1093 34.3836C84.2884 34.4444 84.4766 34.4744 84.6659 34.4724C84.9144 34.4914 85.1607 34.4147 85.3539 34.2582C85.4333 34.1679 85.4938 34.0627 85.5316 33.9487C85.5695 33.8348 85.5841 33.7144 85.5744 33.5948V33.4329C85.4613 33.5641 85.3194 33.6678 85.1596 33.7358C84.9634 33.8108 84.7536 33.8439 84.5437 33.8331C84.3338 33.8223 84.1286 33.7678 83.9412 33.6732C83.7404 33.5722 83.5728 33.4163 83.4581 33.2239C83.3444 33.0229 83.2847 32.7963 83.2847 32.5657C83.2847 32.3351 83.3444 32.1084 83.4581 31.9075C83.5729 31.7164 83.7406 31.5623 83.9412 31.4635C84.1512 31.3526 84.3862 31.2968 84.6239 31.3015C84.8134 31.2995 85.0012 31.3368 85.1753 31.4112C85.3423 31.4793 85.4888 31.5891 85.6007 31.7299V31.3276H86.0523V33.5896C86.0675 33.7731 86.0446 33.9578 85.985 34.1321C85.9253 34.3065 85.8303 34.4668 85.7057 34.603C85.4182 34.8353 85.0504 34.946 84.6817 34.9112L84.6607 34.8903ZM85.3066 31.9127C85.1293 31.7519 84.8952 31.6674 84.6554 31.6776C84.4141 31.6677 84.1785 31.7521 83.999 31.9127C83.9153 31.9906 83.8495 32.0855 83.806 32.191C83.7625 32.2965 83.7423 32.41 83.7469 32.5239C83.7433 32.6797 83.7833 32.8334 83.8624 32.9679C83.9409 33.0968 84.0536 33.2016 84.188 33.2709C84.3333 33.3427 84.4932 33.3801 84.6554 33.3801C84.8176 33.3801 84.9776 33.3427 85.1228 33.2709C85.2568 33.2029 85.3681 33.0976 85.4431 32.9679C85.5241 32.834 85.5659 32.6802 85.5639 32.5239C85.5685 32.4145 85.5498 32.3054 85.5091 32.2037C85.4684 32.102 85.4065 32.0099 85.3276 31.9336L85.3066 31.9127ZM82.1557 33.506C82.0584 33.6427 81.926 33.751 81.7723 33.8194C81.6079 33.8952 81.4283 33.9327 81.2471 33.9291C80.9433 33.9458 80.6452 33.8425 80.4174 33.6418C80.3106 33.5282 80.2285 33.394 80.1761 33.2476C80.1237 33.1011 80.1022 32.9454 80.1128 32.7903V31.3067H80.5907V32.759C80.5769 32.9667 80.6426 33.172 80.7745 33.3336C80.8437 33.4004 80.9262 33.4521 81.0166 33.4853C81.107 33.5186 81.2034 33.5328 81.2997 33.5269C81.4097 33.5329 81.5197 33.516 81.6228 33.4773C81.7259 33.4386 81.8197 33.379 81.8983 33.3023C82.0506 33.1237 82.1278 32.8935 82.1137 32.6597V31.3067H82.5915V33.9187H82.1399L82.1557 33.506ZM78.8892 33.762C78.7039 33.8601 78.4993 33.9166 78.2896 33.9274C78.08 33.9383 77.8706 33.9032 77.6761 33.8246C77.5203 33.7573 77.3847 33.6512 77.2822 33.5164V34.859H76.7991V32.6232C76.7954 32.3795 76.8532 32.1388 76.9671 31.9232C77.0807 31.7232 77.248 31.5586 77.4503 31.4478C77.6708 31.3344 77.9162 31.277 78.1645 31.2806C78.4094 31.2765 78.6515 31.334 78.8682 31.4478C79.0687 31.5574 79.2329 31.7225 79.3408 31.9232C79.4482 32.1392 79.5041 32.3769 79.5041 32.6179C79.5041 32.8589 79.4482 33.0967 79.3408 33.3127C79.2399 33.5084 79.085 33.6714 78.8944 33.7829L78.8892 33.762ZM78.9259 32.1217C78.8554 31.9838 78.7459 31.8694 78.6109 31.7926C78.4699 31.7138 78.3103 31.6741 78.1487 31.6776C78.0311 31.6734 77.9139 31.6936 77.8046 31.7367C77.6952 31.7799 77.596 31.8451 77.5133 31.9284C77.3478 32.1091 77.2609 32.3476 77.2717 32.5918C77.2686 32.7602 77.3064 32.9269 77.382 33.0776C77.4574 33.2274 77.5763 33.3511 77.7233 33.4329C77.8646 33.5083 78.0225 33.5478 78.1829 33.5478C78.3432 33.5478 78.5011 33.5083 78.6424 33.4329C78.7749 33.3552 78.8838 33.2433 78.9575 33.109C79.0322 32.9598 79.07 32.795 79.0677 32.6284C79.0641 32.4576 79.0172 32.2905 78.9312 32.1426L78.9259 32.1217ZM75.3181 33.6888C75.0416 33.8453 74.7277 33.9247 74.4096 33.9187C74.1141 33.9211 73.8224 33.853 73.5588 33.7202C73.311 33.5882 73.0995 33.3977 72.9429 33.1655C72.7863 32.9332 72.6895 32.6663 72.6608 32.3881H72.0201V33.9187H71.5317V30.4657H72.0201V31.9493H72.6661C72.6967 31.6703 72.7962 31.4033 72.9556 31.1718C73.115 30.9403 73.3294 30.7516 73.5798 30.6224C73.8522 30.4893 74.1527 30.4231 74.4561 30.4294C74.7595 30.4358 75.0569 30.5145 75.3234 30.659C75.5887 30.807 75.807 31.0259 75.9536 31.2911C76.1052 31.5684 76.1847 31.8791 76.1847 32.1948C76.1847 32.5105 76.1052 32.8212 75.9536 33.0985C75.807 33.3636 75.5887 33.5826 75.3234 33.7306L75.3181 33.6888ZM75.5177 31.4739C75.4126 31.2764 75.2544 31.1119 75.0608 30.9985C74.8624 30.8866 74.6377 30.8289 74.4096 30.8314C74.1849 30.8295 73.9638 30.8872 73.7689 30.9985C73.5753 31.1119 73.4171 31.2764 73.312 31.4739C73.2005 31.6828 73.1445 31.9165 73.1492 32.153C73.1438 32.3895 73.1999 32.6235 73.312 32.8321C73.4171 33.0296 73.5753 33.1942 73.7689 33.3075C73.9638 33.4188 74.1849 33.4765 74.4096 33.4746C74.6377 33.4771 74.8624 33.4194 75.0608 33.3075C75.2544 33.1942 75.4126 33.0296 75.5177 32.8321C75.6314 32.6239 75.6893 32.39 75.6857 32.153C75.6835 31.9307 75.6277 31.7121 75.5229 31.5157L75.5177 31.4739Z" fill="#101F30"/>
</svg>
